<svg width="129" height="48" viewBox="0 0 129 48" fill="none" xmlns="http://www.w3.org/2000/svg">
<g clip-path="url(#clip0)">
<path fill-rule="evenodd" clip-rule="evenodd" d="M24.2642 -0.000488281C37.665 -0.000488281 48.5285 10.7446 48.5285 23.9995C48.5285 37.2542 37.665 47.9993 24.2642 47.9993C10.8634 47.9993 0 37.2542 0 23.9995C0 10.7446 10.8634 -0.000488281 24.2642 -0.000488281V-0.000488281ZM24.2642 3.23505C35.8584 3.23505 45.2574 12.5316 45.2574 23.9995C45.2574 35.4674 35.8584 44.7639 24.2642 44.7639C12.67 44.7639 3.27106 35.4674 3.27106 23.9995C3.27106 12.5316 12.67 3.23505 24.2642 3.23505Z" fill="#97C11F"/>
<path fill-rule="evenodd" clip-rule="evenodd" d="M11.611 11.4841C15.1051 8.02801 19.6847 6.30005 24.2643 6.30005V23.9996L11.611 11.4841Z" fill="#5C7812"/>
<path fill-rule="evenodd" clip-rule="evenodd" d="M6.36987 23.9996C6.36987 19.112 8.37281 14.6871 11.611 11.4841L24.2643 23.9996H6.36987Z" fill="#638014"/>
<path fill-rule="evenodd" clip-rule="evenodd" d="M11.611 36.5149C8.11694 33.0589 6.36987 28.5292 6.36987 23.9995H24.2643L11.611 36.5149Z" fill="#678815"/>
<path fill-rule="evenodd" clip-rule="evenodd" d="M24.2642 41.699C19.3228 41.699 14.8492 39.7179 11.6109 36.5149L24.2642 23.9995V41.699Z" fill="#749717"/>
<path fill-rule="evenodd" clip-rule="evenodd" d="M42.1587 23.9996C42.1587 19.112 40.1558 14.6871 36.9176 11.4841L24.2642 23.9996H42.1587Z" fill="#97C11F"/>
<path fill-rule="evenodd" clip-rule="evenodd" d="M36.9176 36.5149C40.4117 33.0589 42.1587 28.5292 42.1587 23.9995H24.2642L36.9176 36.5149Z" fill="#8BB31E"/>
<path fill-rule="evenodd" clip-rule="evenodd" d="M24.2642 41.699C29.2056 41.699 33.6793 39.7179 36.9176 36.5149L24.2642 23.9995V41.699Z" fill="#80A51A"/>
<path d="M58.4834 34.7175C58.4834 35.0413 58.7453 35.3328 59.1054 35.3328H70.76C71.12 35.3328 71.382 35.0414 71.382 34.7175V32.9366C71.382 32.6128 71.12 32.3213 70.76 32.3213H61.888V13.2813C61.888 12.9575 61.5935 12.666 61.266 12.666H59.1053C58.7452 12.666 58.4833 12.9574 58.4833 13.2813V34.7174L58.4834 34.7175ZM75.5396 34.7175C75.5396 35.0413 75.8343 35.3328 76.1617 35.3328H78.3224C78.6497 35.3328 78.9445 35.0414 78.9445 34.7175V13.2814C78.9445 12.9576 78.6498 12.6661 78.3224 12.6661H76.1617C75.8344 12.6661 75.5396 12.9575 75.5396 13.2814V34.7175ZM84.1824 34.588C84.117 35.0413 84.3461 35.3327 84.8045 35.3327H86.9323C87.1943 35.3327 87.4889 35.1061 87.5216 34.8793L89.8787 20.4051C89.9115 20.4051 89.9769 20.4051 90.0096 20.4051L95.9352 35.3003C96.0006 35.4946 96.2298 35.6565 96.4917 35.6565H97.0811C97.3756 35.6565 97.5721 35.4946 97.6376 35.3003L103.53 20.4051C103.53 20.4051 103.596 20.4051 103.629 20.4051L106.051 34.8793C106.117 35.1061 106.379 35.3327 106.673 35.3327H108.801C109.259 35.3327 109.489 35.0413 109.39 34.588L105.364 12.828C105.298 12.5689 105.036 12.3423 104.774 12.3423H104.251C104.021 12.3423 103.759 12.5042 103.694 12.6985L96.8846 29.2452H96.7536L89.9115 12.6985C89.846 12.5042 89.5514 12.3423 89.355 12.3423H88.8312C88.5692 12.3423 88.3074 12.5689 88.2419 12.828L84.1825 34.588H84.1824ZM114.661 34.7175C114.661 35.0413 114.923 35.3328 115.283 35.3328H128.378C128.738 35.3328 129 35.0414 129 34.7175V32.9366C129 32.6128 128.738 32.3213 128.378 32.3213H118.033V25.3594H126.774C127.101 25.3594 127.396 25.1004 127.396 24.7441V22.9308C127.396 22.607 127.101 22.3155 126.774 22.3155H118.033V15.7098H128.378C128.738 15.7098 129 15.4184 129 15.0946V13.2812C129 12.9574 128.738 12.6659 128.378 12.6659H115.283C114.923 12.6659 114.661 12.9573 114.661 13.2812V34.7173V34.7175Z" fill="#97C11F"/>
</g>
<defs>
<clipPath id="clip0">
<rect width="129" height="48" fill="white" transform="translate(0 -0.000488281)"/>
</clipPath>
</defs>
</svg>
