<svg width="70" height="25" viewBox="0 0 70 25" fill="none" xmlns="http://www.w3.org/2000/svg">
<path fill-rule="evenodd" clip-rule="evenodd" d="M66.1681 9.81504C66.1681 9.04636 66.7614 8.42432 67.4858 8.42432C68.2142 8.42432 68.8014 9.04636 68.8014 9.81504C68.8014 10.5849 68.2144 11.207 67.4858 11.207C66.7614 11.207 66.1681 10.5849 66.1681 9.81504ZM67.486 10.8774C68.0397 10.8774 68.4916 10.4002 68.4916 9.81504C68.4916 9.23287 68.0397 8.75988 67.486 8.75988C66.9346 8.75988 66.4804 9.23287 66.4804 9.81504C66.4804 10.4002 66.9346 10.8774 67.486 10.8774ZM67.3067 10.4247H67.0369V9.19941H67.5261C67.6256 9.19941 67.7373 9.20542 67.8229 9.26693C67.9164 9.33604 67.9703 9.45204 67.9703 9.57484C67.9703 9.71067 67.8935 9.83768 67.7712 9.88376L67.9824 10.4247H67.6825L67.504 9.94446H67.3065V10.4247H67.3067ZM67.3067 9.73611H67.4571C67.5123 9.73611 67.5764 9.73792 67.6226 9.71067C67.6683 9.68082 67.6887 9.62132 67.6887 9.56883C67.6887 9.52276 67.6621 9.46726 67.6226 9.44563C67.5823 9.41818 67.5012 9.42439 67.4539 9.42439H67.3067V9.73611Z" fill="white"/>
<path fill-rule="evenodd" clip-rule="evenodd" d="M47.3276 0.566348L46.9666 2.9249C46.1836 2.5062 45.6078 2.34212 44.9927 2.34212C43.3515 2.34212 42.1907 4.01793 42.1907 6.41053C42.1907 8.0631 42.97 9.05877 44.2514 9.05877C44.7953 9.05877 45.393 8.88327 46.1244 8.49843L45.7392 10.9804C44.9303 11.2142 44.4026 11.2973 43.7909 11.2973C41.4135 11.2973 39.9348 9.4961 39.9348 6.60486C39.9348 2.71575 41.9779 0 44.9006 0C45.2781 0 45.6154 0.0370621 45.8894 0.116796L46.7981 0.355996C47.0685 0.463576 47.1294 0.480004 47.3276 0.566348Z" fill="white"/>
<path fill-rule="evenodd" clip-rule="evenodd" d="M40.0103 2.18299C39.941 2.16977 39.8645 2.16016 39.7847 2.16016C39.0583 2.16016 38.6476 2.5462 37.9731 3.59957L38.169 2.25592H36.1719L34.8181 11.0973H37.0335C37.8257 5.69347 38.0284 4.76031 39.0904 4.76031C39.155 4.76031 39.161 4.76031 39.2516 4.76932C39.4474 3.70394 39.7157 2.92063 40.0856 2.20623L40.0103 2.18299Z" fill="white"/>
<path fill-rule="evenodd" clip-rule="evenodd" d="M26.8108 10.9896C26.2115 11.1899 25.7378 11.281 25.229 11.281C24.1037 11.281 23.4893 10.5925 23.4893 9.33619C23.4893 9.08977 23.5076 8.82393 23.5521 8.54346L23.6885 7.68141L23.7896 6.97724L24.7462 0.944336H26.9379L26.6866 2.25613H27.8146L27.5049 4.40533H26.3796L25.7972 8.09531C25.7773 8.25818 25.7603 8.37838 25.7603 8.46152C25.7603 8.91428 25.9903 9.11662 26.5114 9.11662C26.7657 9.11662 26.9574 9.08997 27.1048 9.03408L26.8108 10.9896Z" fill="white"/>
<path fill-rule="evenodd" clip-rule="evenodd" d="M18.12 5.05179C18.12 6.16766 18.6318 6.93935 19.7907 7.51612C20.6783 7.95946 20.8193 8.08868 20.8193 8.49115C20.8193 9.04047 20.4254 9.2949 19.5578 9.2949C18.9034 9.2949 18.2917 9.18511 17.5867 8.9409L17.2817 10.9803L17.3815 11.0016L17.7861 11.0877C17.9164 11.1155 18.108 11.1404 18.3609 11.1678C18.8867 11.2171 19.2897 11.2408 19.5749 11.2408C21.8877 11.2408 22.9577 10.3028 22.9577 8.28901C22.9577 7.07899 22.5118 6.36339 21.4096 5.82769C20.49 5.38755 20.3857 5.28378 20.3857 4.87329C20.3857 4.39369 20.7505 4.14728 21.4587 4.14728C21.8907 4.14728 22.4765 4.19876 23.0357 4.2789L23.3498 2.23728C22.775 2.13892 21.9214 2.06299 21.4156 2.06299C18.9617 2.06299 18.1108 3.41986 18.12 5.05179Z" fill="white"/>
<path fill-rule="evenodd" clip-rule="evenodd" d="M64.8882 11.0977H62.8016L62.9111 10.2315C62.3034 10.9158 61.6798 11.2145 60.874 11.2145C59.2615 11.2145 58.2048 9.75505 58.2048 7.54435C58.2048 4.60363 59.8469 2.12067 61.7968 2.12067C62.6536 2.12067 63.3014 2.4933 63.9115 3.3311L64.3914 0.225098H66.5645L64.8882 11.0977ZM61.6343 9.01602C62.6644 9.01602 63.3844 7.78736 63.3844 6.03743C63.3844 4.91375 62.9734 4.30172 62.2115 4.30172C61.2127 4.30172 60.5026 5.53539 60.5026 7.2753C60.5026 8.43304 60.8848 9.01602 61.6343 9.01602Z" fill="white"/>
<path fill-rule="evenodd" clip-rule="evenodd" d="M33.7941 10.9118C33.0398 11.1498 32.3106 11.27 31.5288 11.2668C29.0703 11.2668 27.7856 9.90776 27.7856 7.30921C27.7856 4.27072 29.4195 2.03418 31.6407 2.03418C33.4523 2.03418 34.6158 3.28768 34.6158 5.25217C34.6158 5.90266 34.5374 6.53692 34.3412 7.43302H29.9574C29.939 7.56764 29.9363 7.62915 29.9363 7.70728C29.9363 8.74061 30.592 9.26108 31.8751 9.26108C32.6615 9.26108 33.3695 9.08979 34.1621 8.69874L33.7941 10.9118ZM32.5572 5.64703C32.5697 5.46232 32.5727 5.31167 32.5727 5.19968C32.5727 4.47707 32.1846 4.05516 31.5288 4.05516C30.8296 4.05516 30.3286 4.61871 30.1231 5.64102L32.5572 5.64703Z" fill="white"/>
<path fill-rule="evenodd" clip-rule="evenodd" d="M9.26852 11.0969H7.06586L8.32734 2.74194L5.5086 11.0969H3.999L3.81651 2.79102L2.48761 11.0969H0.424561L2.14577 0.224121H5.32012L5.40748 6.95219L7.55011 0.224121H10.976L9.26852 11.0969Z" fill="white"/>
<path fill-rule="evenodd" clip-rule="evenodd" d="M14.9443 7.15956C14.7111 7.13171 14.6086 7.12149 14.4506 7.12149C13.2015 7.12149 12.5685 7.57806 12.5685 8.47115C12.5685 9.02168 12.8796 9.37246 13.3609 9.37246C14.2576 9.37246 14.9076 8.47115 14.9443 7.15956ZM16.5476 11.098H14.7219L14.7618 10.18C14.2053 10.912 13.462 11.2516 12.4518 11.2516C11.2531 11.2516 10.4348 10.2664 10.4348 8.84277C10.4348 6.68436 11.8648 5.43126 14.3096 5.43126C14.5593 5.43126 14.8782 5.4507 15.2063 5.49677C15.2751 5.20428 15.2937 5.07807 15.2937 4.92301C15.2937 4.33904 14.9105 4.11747 13.8772 4.11747C13.2536 4.11747 12.5376 4.21282 12.0441 4.37009L11.7376 4.45924L11.5445 4.51653L11.8479 2.53361C12.9486 2.19004 13.6734 2.05762 14.4903 2.05762C16.3848 2.05762 17.3888 2.95552 17.3888 4.64996C17.3888 5.09009 17.3567 5.41664 17.2065 6.40389L16.7452 9.53654L16.67 10.1023L16.6134 10.5528L16.5751 10.8608L16.5476 11.098Z" fill="white"/>
<path fill-rule="evenodd" clip-rule="evenodd" d="M51.1251 7.15956C50.8957 7.13171 50.7892 7.12149 50.6353 7.12149C49.3812 7.12149 48.7461 7.57806 48.7461 8.47115C48.7461 9.02168 49.0606 9.37246 49.5421 9.37246C50.443 9.37246 51.0856 8.47115 51.1251 7.15956ZM52.73 11.098H50.9019L50.9444 10.18C50.3883 10.912 49.6434 11.2516 48.6346 11.2516C47.436 11.2516 46.6143 10.2664 46.6143 8.84277C46.6143 6.68436 48.0429 5.43126 50.4925 5.43126C50.7408 5.43126 51.0627 5.4507 51.3886 5.49677C51.4562 5.20428 51.4759 5.07807 51.4759 4.92301C51.4759 4.33904 51.093 4.11747 50.0601 4.11747C49.4326 4.11747 48.7186 4.21282 48.2294 4.37009L47.9158 4.45924L47.7252 4.51653L48.0319 2.53361C49.134 2.19004 49.8572 2.05762 50.6684 2.05762C52.5659 2.05762 53.5699 2.95552 53.5699 4.64996C53.5699 5.09009 53.532 5.41664 53.3892 6.40389L52.9243 9.53654L52.8561 10.1023L52.7944 10.5528L52.7542 10.8608L52.73 11.098Z" fill="white"/>
<path fill-rule="evenodd" clip-rule="evenodd" d="M58.8885 2.18299C58.8233 2.16977 58.7511 2.16016 58.6667 2.16016C57.9429 2.16016 57.5291 2.5462 56.8514 3.59957L57.048 2.25592H55.0536L53.7053 11.0973H55.9132C56.7062 5.69347 56.9144 4.76031 57.9692 4.76031C58.0376 4.76031 58.0331 4.7541 58.1234 4.76932C58.3233 3.70394 58.5929 2.92063 58.9635 2.20623L58.8885 2.18299Z" fill="white"/>
<path fill-rule="evenodd" clip-rule="evenodd" d="M49.6372 19.6722C49.6372 21.6766 49.0196 22.8568 48.0459 22.8568C47.3351 22.8788 46.9041 22.0831 46.9041 20.8929C46.9041 19.4853 47.5337 17.8899 48.5441 17.8899C49.3562 17.8901 49.6372 18.7545 49.6372 19.6722ZM51.8056 19.7091C51.8056 17.4812 50.7096 15.7471 48.6498 15.7471C46.2784 15.7471 44.7427 17.8558 44.7427 20.9602C44.7427 23.1827 45.6503 25 47.8955 25C50.1612 25 51.8056 23.3887 51.8056 19.7091Z" fill="white"/>
<path fill-rule="evenodd" clip-rule="evenodd" d="M45.4514 14.1831L45.1144 16.5391C44.3814 16.1234 43.8481 15.9509 43.2717 15.9509C41.7312 15.9509 40.6552 17.6339 40.6552 20.0265C40.6552 21.6783 41.3758 22.6775 42.576 22.6775C43.0878 22.6775 43.6478 22.5021 44.3275 22.1168L43.9705 24.5972C43.2087 24.833 42.7112 24.9137 42.1454 24.9137C39.926 24.9137 38.5435 23.1117 38.5435 20.22C38.5435 16.3291 40.4515 13.6138 43.1845 13.6138C43.5383 13.6138 43.8515 13.6588 44.1103 13.7306L44.9536 13.971C45.2139 14.0747 45.2677 14.093 45.4514 14.1831Z" fill="white"/>
<path fill-rule="evenodd" clip-rule="evenodd" d="M31.8186 15.8028C31.7557 15.7853 31.6833 15.7783 31.607 15.7783C30.9384 15.7783 30.5463 16.166 29.9197 17.2157L30.1019 15.8745H28.2377L26.9792 24.7169H29.0377C29.7782 19.3076 29.9741 18.3769 30.9616 18.3769C31.0198 18.3769 31.0258 18.3769 31.1117 18.3869C31.2974 17.3173 31.5473 16.5338 31.8936 15.818L31.8186 15.8028Z" fill="white"/>
<path fill-rule="evenodd" clip-rule="evenodd" d="M58.7096 24.6218H56.7644L56.8645 23.7587C56.2987 24.4393 55.7102 24.7406 54.9573 24.7406C53.4572 24.7406 52.4668 23.2787 52.4668 21.0686C52.4668 18.1327 54.0041 15.6425 55.8217 15.6425C56.6236 15.6425 57.2321 16.0232 57.7944 16.861L58.2485 13.752H60.2748L58.7096 24.6218ZM55.6661 22.5419C56.6358 22.5419 57.3043 21.3142 57.3043 19.5627C57.3043 18.4358 56.9224 17.8308 56.2144 17.8308C55.278 17.8308 54.6126 19.0598 54.6126 20.8054C54.6126 21.9575 54.9696 22.5419 55.6661 22.5419Z" fill="white"/>
<path fill-rule="evenodd" clip-rule="evenodd" d="M12.5134 24.5851C11.8132 24.8277 11.1309 24.9451 10.4045 24.9451C8.10533 24.9451 6.90527 23.5833 6.90527 20.9855C6.90527 17.9512 8.43182 15.7129 10.504 15.7129C12.2009 15.7129 13.2829 16.9642 13.2829 18.9287C13.2829 19.578 13.2093 20.2142 13.0332 21.1107H8.92983C8.91747 21.2427 8.91288 21.3083 8.91288 21.3854C8.91288 22.4163 9.52757 22.9364 10.7216 22.9364C11.4574 22.9364 12.1225 22.7641 12.8599 22.3764L12.5134 24.5851ZM11.3623 19.3245C11.3716 19.1376 11.3776 18.9888 11.3776 18.8752C11.3776 18.1542 11.016 17.7323 10.4043 17.7323C9.74676 17.7323 9.27906 18.2998 9.09078 19.3153L11.3623 19.3245Z" fill="white"/>
<path fill-rule="evenodd" clip-rule="evenodd" d="M37.003 24.5851C36.3006 24.8277 35.6169 24.9451 34.8931 24.9451C32.5893 24.9451 31.3909 23.5833 31.3909 20.9855C31.3909 17.9512 32.919 15.7129 34.9896 15.7129C36.6869 15.7129 37.7723 16.9642 37.7723 18.9287C37.7723 19.578 37.6955 20.2142 37.5132 21.1107H33.4188C33.4063 21.2427 33.3987 21.3083 33.3987 21.3854C33.3987 22.4163 34.012 22.9364 35.2058 22.9364C35.9418 22.9364 36.6087 22.7641 37.3463 22.3764L37.003 24.5851ZM35.8455 19.3245C35.859 19.1376 35.8666 18.9888 35.8666 18.8752C35.8666 18.1542 35.502 17.7323 34.8929 17.7323C34.2351 17.7323 33.768 18.2998 33.5778 19.3153L35.8455 19.3245Z" fill="white"/>
<path fill-rule="evenodd" clip-rule="evenodd" d="M65.7342 24.5851C65.0226 24.8277 64.3481 24.9451 63.6189 24.9451C61.3199 24.9451 60.1167 23.5833 60.1167 20.9855C60.1167 17.9512 61.648 15.7129 63.7185 15.7129C65.4153 15.7129 66.4963 16.9642 66.4963 18.9287C66.4963 19.578 66.4257 20.2142 66.2432 21.1107H62.1446C62.1303 21.2427 62.1273 21.3083 62.1273 21.3854C62.1273 22.4163 62.7424 22.9364 63.9365 22.9364C64.673 22.9364 65.3369 22.7641 66.0761 22.3764L65.7342 24.5851ZM64.5769 19.3245C64.586 19.1376 64.592 18.9888 64.592 18.8752C64.592 18.1542 64.232 17.7323 63.6189 17.7323C62.9612 17.7323 62.4957 18.2998 62.305 19.3153L64.5769 19.3245Z" fill="white"/>
<path fill-rule="evenodd" clip-rule="evenodd" d="M6.41912 16.2018C6.01604 15.9309 5.47036 15.6943 4.69931 15.6943C3.86703 15.6943 3.19729 15.8676 3.19729 16.7571C3.19729 18.3279 6.23204 17.7413 6.23204 21.1052C6.23204 24.1691 4.22902 24.9634 2.41707 24.9634C1.61091 24.9634 0.683496 24.6956 0 24.3905L0.492029 22.1391C0.90448 22.5153 1.73656 22.7732 2.41707 22.7732C3.06546 22.7732 4.08163 22.5953 4.08163 21.4586C4.08163 19.6786 1.04848 20.3407 1.04848 17.2165C1.04848 14.3585 2.82034 13.5024 4.52958 13.5024C5.4921 13.5024 6.39638 13.6443 6.9267 13.9983L6.41912 16.2018Z" fill="white"/>
<path fill-rule="evenodd" clip-rule="evenodd" d="M18.5414 24.5822C18.1168 24.7873 17.5498 24.9224 16.7129 24.9224C14.9135 24.9224 13.7976 23.1157 13.7976 20.9163C13.7976 18.0377 15.4117 15.7412 17.7873 15.7412C18.3054 15.7412 19.0962 15.9664 19.7201 16.3296L19.2648 18.4413C18.8232 18.1498 18.3635 17.9645 17.89 17.9645C16.7893 17.9645 16.0031 18.9778 16.0031 20.7935C16.0031 21.8388 16.5733 22.6962 17.4744 22.6962C18.0107 22.6962 18.388 22.5827 18.8495 22.3116L18.5414 24.5822Z" fill="white"/>
<path fill-rule="evenodd" clip-rule="evenodd" d="M26.2426 22.3677C26.1369 23.1284 26.0387 23.8669 25.9803 24.6604H23.9984L24.1656 23.2312H24.1454C23.5247 24.2026 22.8825 24.8639 21.7605 24.8639C20.5161 24.8639 19.8418 23.5487 19.8418 21.831C19.8418 21.2391 19.8785 20.9049 20.0101 19.9803L20.5712 15.8879H22.7768L22.1851 19.9924C22.1252 20.4333 22.0411 20.8706 22.0411 21.3268C22.0411 21.8441 22.2756 22.3673 22.8704 22.3353C23.7744 22.3353 24.308 21.2244 24.4597 19.9283L25.0684 15.8877H27.2035L26.2426 22.3677Z" fill="white"/>
<path fill-rule="evenodd" clip-rule="evenodd" d="M67.789 24.554H67.4555V23.0876H66.9733V22.7734H68.2713V23.0876H67.789V24.554Z" fill="white"/>
<path fill-rule="evenodd" clip-rule="evenodd" d="M70 24.554H69.6884V23.0655H69.6841L69.3863 24.554H69.0596L68.7688 23.0655H68.7642V24.554H68.4535V22.7734H68.9397L69.2291 24.1772H69.2335L69.5177 22.7734H70V24.554Z" fill="white"/>
</svg>
