<svg width="75" height="25" viewBox="0 0 75 25" fill="none" xmlns="http://www.w3.org/2000/svg">
<path d="M22.4082 18.5555L22.4009 18.5514C22.5193 18.3416 22.6296 18.1284 22.735 17.9145C25.6132 12.0801 23.8636 5.22812 18.403 1.89419C18.3527 1.8635 18.3049 1.83116 18.2546 1.8013C18.1906 1.76398 18.1265 1.72666 18.0633 1.69017C18.4192 2.29061 18.6932 2.95076 18.874 3.65569C19.35 5.50926 19.1003 7.48723 18.1841 9.06379C18.1273 9.16331 18.0698 9.25786 18.0138 9.34991C17.0474 10.9298 16.1807 11.5601 15.4112 12.1174C14.8704 12.5097 14.4018 12.8489 13.8926 13.5331L13.8383 13.6293C13.0973 14.9421 12.9821 16.4499 13.3973 17.7926C13.767 18.9868 14.555 20.0483 15.6958 20.7218C18.1071 22.1449 20.9975 21.0029 22.4082 18.5555Z" fill="white"/>
<path d="M1.25995 11.0144C2.59124 9.66674 4.38549 8.90375 6.18297 8.92199C6.62323 8.92614 7.00753 8.95517 7.34968 8.99995C8.48801 9.15006 9.14555 9.49092 9.73985 9.80026C10.3577 10.122 10.8911 10.3999 12.087 10.4886H12.2224C13.9437 10.4886 15.4672 9.6062 16.385 8.26018C16.959 7.41924 17.2979 6.39667 17.2979 5.29531C17.2979 2.44903 14.5469 0.0257094 11.77 0V0.00829335C11.4125 0.00829335 11.0598 0.0273681 10.7103 0.0580535C4.48926 0.59878 0.0810776 5.94302 0.00324311 12.3372C0.00243233 12.3886 0 12.4392 0 12.4906C0 12.5653 3.15161e-09 12.6407 0.00162155 12.7154C0.331607 12.1008 0.75321 11.5278 1.25995 11.0144Z" fill="white"/>
<path d="M17.9935 23.4006C18.0681 23.3591 18.1443 23.3193 18.2181 23.2762C18.2822 23.2388 18.3446 23.2007 18.4078 23.1609C17.7219 23.1766 17.0255 23.0896 16.3387 22.8971C14.5315 22.3921 12.9878 21.1846 12.1049 19.5815C11.8852 19.1842 11.7165 18.8317 11.5835 18.5125C11.153 17.4733 11.119 16.7941 11.0882 16.1331C11.0557 15.4613 11.0257 14.8261 10.4712 13.5547L10.412 13.4494C9.65795 12.1141 8.40855 11.2524 7.03753 10.963C5.86109 10.715 4.59709 10.8884 3.47822 11.5485C2.30341 12.2418 1.46345 13.3623 1.11319 14.7008C0.766178 16.0253 0.916171 17.7752 1.57533 18.9669L1.58263 18.9628C1.59155 18.9794 1.60128 18.9943 1.61101 19.0101C4.96275 24.8892 12.2638 26.6209 17.9935 23.4006Z" fill="white"/>
<path d="M29.0469 13.1452C29.0963 12.4552 29.4425 11.8954 30.0863 11.4641C30.73 11.0329 31.4273 10.7957 32.1773 10.7534C32.2097 10.7534 32.2462 10.7534 32.2875 10.7534C32.3273 10.7534 32.3645 10.7534 32.397 10.7534C32.4294 10.7534 32.4618 10.7534 32.4951 10.7534C32.5275 10.7534 32.5599 10.7534 32.5932 10.7534C33.2288 10.7824 33.8312 10.9649 34.402 11.3032C34.9728 11.6408 35.3474 12.1624 35.5266 12.8657L36.7492 17.3068L38.1429 12.5207C38.3059 12.0181 38.6935 11.6084 39.3048 11.2925C39.9161 10.9765 40.5639 10.8106 41.2482 10.7965C41.2644 10.7965 41.2806 10.7965 41.2969 10.7965C41.3139 10.7965 41.3293 10.7965 41.3463 10.7965C41.3958 10.7965 41.4444 10.7965 41.4931 10.7965C41.5425 10.7965 41.5912 10.7965 41.6406 10.7965C42.3582 10.8537 43.0173 11.0876 43.6205 11.4973C44.2238 11.907 44.5659 12.5647 44.6478 13.4695L45.6994 24.7003H40.9555L40.4423 16.7022L38.5345 23.7939C38.4689 24.1248 38.3027 24.3802 38.0335 24.5593C37.7643 24.7401 37.4749 24.8579 37.1652 24.9151C37.0995 24.9151 37.0387 24.9184 36.9819 24.9259C36.9244 24.9325 36.8717 24.9375 36.823 24.9375C36.7898 24.9375 36.7533 24.9375 36.7127 24.9375C36.6722 24.9375 36.6357 24.9301 36.6033 24.9151C36.326 24.8861 36.0609 24.7932 35.8087 24.6348C35.5558 24.4772 35.405 24.255 35.3563 23.9664L33.2783 16.7014L32.7164 24.6995H28.0212L29.0469 13.1452Z" fill="white"/>
<path d="M63.4424 15.5451C63.4424 15.3013 63.4789 15.0268 63.5527 14.7249C63.6256 14.4222 63.7367 14.1137 63.8826 13.796C64.2256 13.0621 64.7923 12.3895 65.5853 11.7774C66.3766 11.1654 67.4176 10.8303 68.7076 10.7731L69.0984 10.7524C70.5845 10.7665 71.9223 11.1836 73.115 12.0047C74.306 12.8249 74.9343 14.0117 75 15.5667V15.9772C75 16.0344 75 16.0891 75 16.1397C75 16.1903 75 16.2434 75 16.3006C74.9343 17.4385 74.4576 18.4818 73.5674 19.4314C72.6763 20.3818 71.2283 20.8553 69.2208 20.8553C69.2046 20.8553 69.1795 20.852 69.147 20.8454C69.1146 20.8379 69.0813 20.8346 69.0489 20.8346C69.0165 20.8346 68.984 20.8313 68.9516 20.823C68.9184 20.8164 68.8949 20.813 68.8778 20.813V16.9268C68.8949 16.9417 68.9111 16.9525 68.9273 16.9599C68.9443 16.9674 68.9597 16.9707 68.9767 16.9707C69.0092 16.9848 69.0335 16.9915 69.0497 16.9915C69.4575 16.9915 69.7762 16.8878 70.0056 16.6788C70.2343 16.4706 70.364 16.2368 70.3964 15.9772C70.3964 15.9623 70.3964 15.9448 70.3964 15.9233C70.3964 15.9017 70.3964 15.8835 70.3964 15.8694C70.3964 15.8553 70.3964 15.837 70.3964 15.8155C70.3964 15.7939 70.3964 15.7765 70.3964 15.7616C70.364 15.5451 70.2667 15.351 70.1029 15.1785C69.9399 15.006 69.704 14.9198 69.3927 14.9198C68.8868 14.9198 68.5568 15.0533 68.4019 15.3187C68.2462 15.5849 68.1684 16.0278 68.1684 16.6465V24.9373H63.4432L63.4424 15.5451Z" fill="white"/>
<path d="M60.8812 24.5915H55.9906V19.0524L53.3742 23.3848C53.1139 23.8169 52.7677 24.1578 52.3364 24.409C51.9042 24.6603 51.4599 24.8221 51.0035 24.8942C50.9216 24.9083 50.8405 24.9191 50.7586 24.9265C50.6767 24.9332 50.5956 24.9382 50.5138 24.9382C49.8619 24.9382 49.2708 24.7358 48.7406 24.3344C48.2112 23.9322 47.946 23.3069 47.946 22.4584V10.8817H52.861V16.8961L55.2811 12.4343C55.526 11.974 55.856 11.6116 56.2711 11.3453C56.6878 11.08 57.1151 10.9033 57.5554 10.8171C57.6697 10.7889 57.7791 10.7706 57.8853 10.764C57.9915 10.7573 58.0929 10.7532 58.191 10.7532C58.8915 10.7532 59.5158 10.9547 60.0615 11.357C60.6079 11.7592 60.8812 12.3198 60.8812 13.038V24.5915Z" fill="white"/>
<path d="M30.1471 4.44777C29.6792 4.44777 29.3063 4.28853 29.029 3.96924C28.7623 3.66487 28.6293 3.27094 28.6293 2.78661C28.6293 2.31389 28.7671 1.91995 29.042 1.60398C29.3258 1.27639 29.6971 1.11301 30.156 1.11301C30.3206 1.11301 30.4762 1.1354 30.6238 1.18184C30.8087 1.2399 30.94 1.32283 31.0195 1.42981C31.0649 1.49036 31.0868 1.55256 31.0868 1.61642C31.0868 1.70018 31.0568 1.77482 30.9976 1.84034C30.9384 1.90585 30.867 1.9382 30.7851 1.9382C30.7089 1.9382 30.6165 1.91663 30.5087 1.87268C30.4008 1.82873 30.2849 1.80716 30.16 1.80716C29.9055 1.80716 29.7092 1.91166 29.5738 2.12065C29.4547 2.29979 29.3955 2.52786 29.3955 2.80319C29.3955 3.07273 29.4595 3.29333 29.5868 3.46418C29.7255 3.65492 29.9241 3.75195 30.1819 3.75195C30.2954 3.75195 30.4211 3.72542 30.5606 3.67317C30.6992 3.62092 30.7933 3.59521 30.8411 3.59521C30.9197 3.59521 30.9878 3.62755 31.043 3.69307C31.0981 3.75859 31.1257 3.83157 31.1257 3.91285C31.1257 3.98251 31.103 4.04886 31.0576 4.11272C30.8987 4.33664 30.5954 4.44777 30.1471 4.44777Z" fill="white"/>
<path d="M32.6686 1.15201C32.9207 1.15201 33.0951 1.29134 33.1915 1.56834L33.9739 3.84901C34.008 3.9477 34.025 4.02234 34.025 4.07459C34.025 4.17328 33.991 4.2529 33.9229 4.31427C33.8556 4.37481 33.7729 4.4055 33.6764 4.4055C33.498 4.4055 33.3732 4.29188 33.3026 4.06381L33.1875 3.69227H32.0905L31.9624 4.08869C31.8943 4.29934 31.7808 4.40467 31.6227 4.40467C31.523 4.40467 31.4427 4.37315 31.3803 4.31095C31.3178 4.24875 31.287 4.16665 31.287 4.06547C31.287 3.99 31.2984 3.92116 31.3211 3.8573L32.1286 1.62142C32.2421 1.30793 32.4213 1.15201 32.6686 1.15201ZM32.6475 1.93905L32.294 3.05285H32.9953L32.6556 1.93905H32.6475Z" fill="white"/>
<path d="M35.9879 3.36553H36.0049L36.4144 1.58329C36.4427 1.45889 36.5027 1.35688 36.5952 1.27644C36.6868 1.19682 36.7954 1.15701 36.9203 1.15701C37.0614 1.15701 37.1838 1.20345 37.2859 1.29551C37.3873 1.3884 37.4505 1.50699 37.4724 1.65212L37.8121 3.81835C37.8292 3.9245 37.8381 4.00495 37.8381 4.05969C37.8381 4.28941 37.7319 4.40552 37.5203 4.40552C37.3954 4.40552 37.3054 4.35659 37.2487 4.25873C37.2089 4.1957 37.1789 4.09037 37.1562 3.94441L36.8879 2.20944H36.8773L36.4768 3.8142C36.4346 3.97841 36.386 4.09535 36.3325 4.1675C36.253 4.26868 36.1411 4.31844 35.996 4.31844C35.8517 4.31844 35.7398 4.26785 35.6603 4.1675C35.6068 4.09866 35.559 3.9809 35.516 3.8142L35.1123 2.20944H35.1058L34.8415 3.94441C34.8188 4.09369 34.7879 4.19984 34.7482 4.26287C34.689 4.35742 34.5958 4.40469 34.4709 4.40469C34.2577 4.40469 34.1515 4.28941 34.1515 4.05886C34.1515 4.02402 34.1612 3.94358 34.1815 3.81752L34.5212 1.65129C34.5439 1.50616 34.6055 1.38757 34.7061 1.29468C34.8066 1.20179 34.9274 1.15618 35.0685 1.15618C35.1958 1.15618 35.3036 1.19516 35.3928 1.27395C35.4812 1.35273 35.542 1.45557 35.5728 1.58329L35.9879 3.36553Z" fill="white"/>
<path d="M38.1016 2.78417C38.1016 2.30979 38.2321 1.92249 38.4924 1.62476C38.7616 1.3121 39.1256 1.15618 39.5853 1.15618C40.0474 1.15618 40.4131 1.31127 40.6831 1.62144C40.9434 1.91917 41.0739 2.3073 41.0739 2.785C41.0739 3.26021 40.9434 3.64668 40.6831 3.94441C40.4107 4.25126 40.045 4.40469 39.5853 4.40469C39.1256 4.40469 38.7616 4.2496 38.4924 3.93943C38.2313 3.64419 38.1016 3.25938 38.1016 2.78417ZM38.8499 2.79329C38.8499 3.0537 38.9083 3.26933 39.0243 3.43934C39.1548 3.63921 39.3421 3.73873 39.5853 3.73873C39.8285 3.73873 40.0175 3.64004 40.1504 3.44432C40.2672 3.27099 40.3255 3.0537 40.3255 2.79329C40.3255 2.52459 40.2696 2.30315 40.1585 2.12982C40.0256 1.92415 39.8342 1.82131 39.5853 1.82131C39.3356 1.82131 39.1459 1.92415 39.0153 2.12982C38.9051 2.30315 38.8499 2.52459 38.8499 2.79329Z" fill="white"/>
<path d="M41.9025 4.40461C41.6666 4.40461 41.549 4.23377 41.549 3.89208V1.70347C41.549 1.51521 41.5839 1.38334 41.6544 1.30787C41.7266 1.2324 41.8539 1.19425 42.0379 1.19425H42.676C43.0181 1.19425 43.2906 1.28548 43.4916 1.46877C43.7049 1.65951 43.8111 1.92822 43.8111 2.27322C43.8111 2.61491 43.7146 2.88029 43.5224 3.06855C43.3295 3.25681 43.0668 3.35136 42.7311 3.35136H42.2552V3.89208C42.2552 4.23377 42.1368 4.40461 41.9025 4.40461ZM42.2552 2.69535H42.5609C42.8844 2.69535 43.0465 2.55519 43.0465 2.27322C43.0465 1.99788 42.8852 1.85938 42.5609 1.85938H42.2552V2.69535Z" fill="white"/>
<path d="M45.5502 1.19508C45.8834 1.19508 46.0504 1.3087 46.0504 1.53428C46.0504 1.75737 45.8834 1.86933 45.5502 1.86933H44.9713V2.43494H45.4691C45.8023 2.43494 45.9694 2.54607 45.9694 2.7675C45.9694 2.98977 45.8023 3.10007 45.4691 3.10007H44.9713V3.70465H45.5705C45.9045 3.70465 46.0723 3.81578 46.0723 4.03722C46.0723 4.25948 45.9045 4.36978 45.5705 4.36978H44.7451C44.5659 4.36978 44.4427 4.33827 44.3713 4.27607C44.3008 4.21387 44.2651 4.09278 44.2651 3.91282V1.7043C44.2651 1.51521 44.3008 1.38334 44.3713 1.30787C44.4427 1.2324 44.5691 1.19425 44.754 1.19425L45.5502 1.19508Z" fill="white"/>
<path d="M46.5401 3.89208V1.70347C46.5401 1.51521 46.5758 1.38334 46.6464 1.30787C46.7169 1.2324 46.845 1.19425 47.029 1.19425H47.8236C48.1584 1.19425 48.3255 1.30787 48.3255 1.53345C48.3255 1.75654 48.1584 1.8685 47.8236 1.8685H47.2463V3.89125C47.2463 4.23377 47.1279 4.40378 46.8928 4.40378C46.6577 4.40378 46.5401 4.23377 46.5401 3.89208Z" fill="white"/>
<path d="M49.4524 4.99598C49.2433 4.99598 49.1379 4.88153 49.1379 4.65264C49.1379 4.57717 49.1516 4.5075 49.1784 4.44447L49.3762 3.93609L48.5006 1.71762C48.4747 1.65376 48.4625 1.58575 48.4625 1.5136C48.4625 1.40662 48.4909 1.31954 48.5509 1.25236C48.6101 1.18519 48.6928 1.15201 48.7973 1.15201C48.9303 1.15201 49.0381 1.25651 49.12 1.4655L49.7273 3.00475H49.7443L50.3038 1.49204C50.3459 1.37842 50.3857 1.30046 50.4221 1.25651C50.4781 1.18684 50.5551 1.15201 50.6516 1.15201C50.8697 1.15201 50.9783 1.26397 50.9783 1.48706C50.9783 1.57083 50.9621 1.65376 50.9305 1.73421L49.8003 4.70074C49.7597 4.80192 49.7192 4.87407 49.677 4.91803C49.6243 4.97027 49.5489 4.99598 49.4524 4.99598Z" fill="white"/>
<path d="M53.2745 1.79559H52.518C52.4126 1.79559 52.3607 1.86028 52.3607 1.99049V3.76195C52.3607 4.19072 52.1515 4.40468 51.7356 4.40468C51.361 4.40468 51.1745 4.29355 51.1745 4.07046C51.1745 3.93694 51.2094 3.84903 51.2808 3.8059C51.3229 3.78019 51.3991 3.76527 51.5062 3.76278C51.6018 3.75946 51.6643 3.74453 51.6926 3.71468C51.721 3.68482 51.7356 3.62179 51.7356 3.52393V1.98966C51.7356 1.68032 51.7899 1.46386 51.901 1.34029C52.0121 1.21672 52.2172 1.15535 52.518 1.15535H53.6271C53.8623 1.15535 53.9806 1.32619 53.9806 1.66788V3.89133C53.9806 4.23384 53.8623 4.40385 53.6271 4.40385C53.4796 4.40385 53.3807 4.35327 53.3296 4.25209C53.2923 4.17993 53.2745 4.05968 53.2745 3.89133V1.79559Z" fill="white"/>
<path d="M56.6075 2.43419L55.3273 4.16501C55.209 4.32424 55.0736 4.40469 54.9195 4.40469C54.7063 4.40469 54.6009 4.26121 54.6009 3.97426V1.66871C54.6009 1.32702 54.7184 1.15618 54.9536 1.15618C55.1887 1.15618 55.3071 1.32702 55.3071 1.66871V3.15571L56.6116 1.39088C56.7275 1.23414 56.8524 1.15618 56.9854 1.15618C57.2051 1.15618 57.3129 1.3179 57.3129 1.64217V3.89133C57.3129 4.23385 57.1945 4.40386 56.9602 4.40386C56.7243 4.40386 56.6067 4.23302 56.6067 3.89216L56.6075 2.43419Z" fill="white"/>
<path d="M58.2907 4.40461C58.0556 4.40461 57.938 4.23377 57.938 3.89208V1.70347C57.938 1.51521 57.9729 1.38334 58.0434 1.30787C58.1148 1.2324 58.2421 1.19425 58.4269 1.19425H59.0642C59.4072 1.19425 59.6796 1.28548 59.8806 1.46877C60.0939 1.65951 60.2001 1.92822 60.2001 2.27322C60.2001 2.61491 60.1036 2.88029 59.9115 3.06855C59.7185 3.25681 59.455 3.35136 59.1201 3.35136H58.6442V3.89208C58.6442 4.23377 58.5258 4.40461 58.2907 4.40461ZM58.6442 2.69535H58.9499C59.2734 2.69535 59.4355 2.55519 59.4355 2.27322C59.4355 1.99788 59.2742 1.85938 58.9499 1.85938H58.6442V2.69535Z" fill="white"/>
<path d="M61.3814 4.99598C61.1714 4.99598 61.0668 4.88153 61.0668 4.65263C61.0668 4.57716 61.0806 4.5075 61.1065 4.44447L61.306 3.93609L60.4296 1.71678C60.4036 1.65293 60.3906 1.58492 60.3906 1.51277C60.3906 1.40578 60.4206 1.3187 60.4798 1.25153C60.5398 1.18435 60.6225 1.15118 60.7263 1.15118C60.8593 1.15118 60.9679 1.25567 61.049 1.46467L61.6571 3.00391H61.6741L62.2327 1.49121C62.2749 1.37759 62.3154 1.29963 62.3511 1.25567C62.407 1.18601 62.4841 1.15118 62.5797 1.15118C62.7978 1.15118 62.9065 1.26314 62.9065 1.48623C62.9065 1.56999 62.8903 1.65293 62.8594 1.73337L61.7284 4.69991C61.6879 4.80108 61.6473 4.87324 61.6052 4.91719C61.5533 4.97027 61.4779 4.99598 61.3814 4.99598Z" fill="white"/>
<path d="M64.5021 1.19508C64.8369 1.19508 65.0039 1.3087 65.0039 1.53428C65.0039 1.75737 64.8369 1.86933 64.5021 1.86933H63.924V2.43494H64.421C64.755 2.43494 64.9221 2.54607 64.9221 2.7675C64.9221 2.98977 64.755 3.10007 64.421 3.10007H63.924V3.70465H64.5223C64.8572 3.70465 65.0242 3.81578 65.0242 4.03722C65.0242 4.25948 64.8572 4.36978 64.5223 4.36978H63.6978C63.5194 4.36978 63.3946 4.33827 63.324 4.27607C63.2527 4.21387 63.217 4.09278 63.217 3.91282V1.7043C63.217 1.51521 63.2527 1.38334 63.324 1.30787C63.3946 1.2324 63.5218 1.19425 63.7059 1.19425L64.5021 1.19508Z" fill="white"/>
<path d="M67.116 3.36553H67.1338L67.5425 1.58328C67.5708 1.45888 67.63 1.35688 67.7233 1.27643C67.8149 1.19681 67.9235 1.15701 68.0476 1.15701C68.1895 1.15701 68.3111 1.20345 68.4124 1.29551C68.5154 1.38839 68.577 1.50699 68.5997 1.65212L68.9403 3.81834C68.9573 3.9245 68.9646 4.00494 68.9646 4.05968C68.9646 4.28941 68.8592 4.40551 68.6476 4.40551C68.5227 4.40551 68.4327 4.35658 68.376 4.25872C68.337 4.19569 68.3054 4.09037 68.2827 3.9444L68.0152 2.20943H68.0038L67.6049 3.8142C67.5619 3.97841 67.5133 4.09534 67.4598 4.16749C67.3803 4.26867 67.2684 4.31843 67.1233 4.31843C66.979 4.31843 66.8671 4.26784 66.7885 4.16749C66.7341 4.09866 66.6855 3.98089 66.6433 3.8142L66.2412 2.2086H66.2339L65.9704 3.94357C65.9485 4.09285 65.9169 4.19901 65.8763 4.26204C65.818 4.35658 65.7247 4.40386 65.599 4.40386C65.3858 4.40386 65.2796 4.28858 65.2796 4.05802C65.2796 4.02319 65.2893 3.94274 65.3096 3.81669L65.6501 1.65046C65.672 1.50533 65.7344 1.38673 65.835 1.29385C65.9347 1.20096 66.0563 1.15535 66.1974 1.15535C66.3247 1.15535 66.4325 1.19433 66.5217 1.27311C66.6109 1.3519 66.6709 1.45474 66.7017 1.58246L67.116 3.36553Z" fill="white"/>
<path d="M70.484 1.15201C70.7361 1.15201 70.9096 1.29134 71.0069 1.56834L71.7893 3.84901C71.8234 3.9477 71.8396 4.02234 71.8396 4.07459C71.8396 4.17328 71.8055 4.2529 71.7382 4.31427C71.6693 4.37481 71.5866 4.4055 71.4901 4.4055C71.3118 4.4055 71.1877 4.29188 71.1164 4.06381L71.0012 3.69227H69.9043L69.7778 4.08869C69.7097 4.29934 69.5962 4.40467 69.4373 4.40467C69.3383 4.40467 69.2573 4.37315 69.1948 4.31095C69.1332 4.24875 69.1024 4.16665 69.1024 4.06547C69.1024 3.99 69.1129 3.92116 69.1357 3.8573L69.9432 1.62142C70.0567 1.30793 70.2367 1.15201 70.484 1.15201ZM70.4621 1.93905L70.1094 3.05285H70.8107L70.4702 1.93905H70.4621Z" fill="white"/>
<path d="M74.4122 1.70347V3.89209C74.4122 4.2346 74.2938 4.40462 74.0587 4.40462C73.8236 4.40462 73.706 4.23377 73.706 3.89292V3.11251L72.8814 4.17074C72.759 4.32666 72.635 4.40462 72.5069 4.40462C72.4136 4.40462 72.3334 4.37476 72.2669 4.31588C72.2004 4.25617 72.1671 4.17987 72.1671 4.08781C72.1671 3.9717 72.2361 3.83486 72.3755 3.6748L72.9325 3.04036C72.7063 3.00304 72.5255 2.9085 72.3925 2.75839C72.2596 2.60828 72.1931 2.4167 72.1931 2.18532C72.1931 1.89339 72.2944 1.65537 72.4963 1.47126C72.6998 1.28715 72.9925 1.19509 73.3744 1.19509H73.9233C74.1098 1.19509 74.2387 1.23241 74.3092 1.30622C74.3773 1.38003 74.4122 1.51272 74.4122 1.70347ZM73.7068 2.63482V1.86022H73.3703C73.076 1.86022 72.9285 1.98628 72.9285 2.23922C72.9285 2.50295 73.0785 2.63482 73.3784 2.63482H73.7068Z" fill="white"/>
<path d="M28.4655 7.28909C28.4655 6.81388 28.5961 6.42741 28.8563 6.12885C29.1255 5.81619 29.4895 5.66027 29.9484 5.66027C30.4106 5.66027 30.7762 5.81536 31.0454 6.12553C31.3065 6.42409 31.4362 6.81139 31.4362 7.28992C31.4362 7.7643 31.3057 8.15077 31.0454 8.4485C30.7738 8.75535 30.4081 8.90878 29.9484 8.90878C29.4895 8.90878 29.1255 8.7537 28.8563 8.44353C28.5961 8.14911 28.4655 7.76347 28.4655 7.28909ZM29.2139 7.29738C29.2139 7.55779 29.2714 7.77342 29.3882 7.94344C29.5187 8.1433 29.7052 8.24282 29.9492 8.24282C30.1933 8.24282 30.3814 8.14413 30.5152 7.94841C30.6319 7.77508 30.6895 7.55779 30.6895 7.29738C30.6895 7.02785 30.6343 6.80724 30.5241 6.63308C30.3903 6.42741 30.199 6.32457 29.9501 6.32457C29.7011 6.32457 29.5106 6.42741 29.3801 6.63308C29.2698 6.80724 29.2139 7.02868 29.2139 7.29738Z" fill="white"/>
<path d="M33.6991 8.90881C33.464 8.90881 33.3464 8.73796 33.3464 8.39628V6.20766C33.3464 6.0194 33.3813 5.88754 33.4526 5.81207C33.5231 5.7366 33.6504 5.69928 33.8353 5.69928H34.4734C34.8163 5.69928 35.0879 5.7905 35.289 5.97296C35.5022 6.16454 35.6085 6.43324 35.6085 6.77741C35.6085 7.11993 35.512 7.38449 35.3198 7.57358C35.1269 7.76183 34.8633 7.85638 34.5285 7.85638H34.0526V8.39794C34.0518 8.73879 33.935 8.90881 33.6991 8.90881ZM34.0518 7.19955H34.3582C34.6809 7.19955 34.8431 7.05939 34.8431 6.77741C34.8431 6.50207 34.6817 6.3644 34.3582 6.3644H34.0518V7.19955Z" fill="white"/>
<path d="M37.4951 8.39628V6.20766C37.4951 6.0194 37.5308 5.88754 37.6021 5.81207C37.6727 5.7366 37.8008 5.69928 37.9848 5.69928H38.7802C39.1142 5.69928 39.2813 5.81207 39.2813 6.03848C39.2813 6.2624 39.1142 6.37353 38.7802 6.37353H38.2013V8.39628C38.2013 8.73796 38.0838 8.90881 37.8486 8.90881C37.6135 8.90881 37.4951 8.73796 37.4951 8.39628Z" fill="white"/>
<path d="M41.8449 5.65527C42.0971 5.65527 42.2706 5.7946 42.3679 6.07243L43.1503 8.35227C43.1843 8.45096 43.2006 8.5256 43.2006 8.57785C43.2006 8.67654 43.1673 8.75616 43.0992 8.8167C43.0311 8.87724 42.9484 8.90792 42.8527 8.90792C42.6736 8.90792 42.5487 8.7943 42.4782 8.56624L42.363 8.1947H41.2652L41.1388 8.59195C41.0698 8.80177 40.9563 8.9071 40.7982 8.9071C40.6993 8.9071 40.6182 8.87558 40.5558 8.81421C40.4934 8.75118 40.4626 8.66991 40.4626 8.56873C40.4626 8.49326 40.4739 8.42442 40.4966 8.36056L41.3042 6.12467C41.4185 5.81201 41.5985 5.65527 41.8449 5.65527ZM41.8239 6.44231L41.4704 7.55611H42.1717L41.8312 6.44231H41.8239Z" fill="white"/>
<path d="M45.6791 7.58599V8.39542C45.6791 8.73793 45.5607 8.90878 45.3256 8.90878C45.0905 8.90878 44.9721 8.73793 44.9721 8.39625V6.17197C44.9721 5.83028 45.0905 5.65944 45.3256 5.65944C45.5607 5.65944 45.6791 5.83028 45.6791 6.1728V6.92086H46.9804V6.1728C46.9804 5.83028 47.098 5.65944 47.3331 5.65944C47.5682 5.65944 47.6866 5.83028 47.6866 6.17197V8.39625C47.6866 8.73793 47.5682 8.90878 47.3331 8.90878C47.098 8.90878 46.9804 8.73793 46.9804 8.39542V7.58599H45.6791Z" fill="white"/>
<path d="M51.751 6.93827L50.4708 8.6691C50.3524 8.82916 50.2162 8.90878 50.063 8.90878C49.8505 8.90878 49.7435 8.7653 49.7435 8.47835V6.17197C49.7435 5.83028 49.8619 5.65944 50.097 5.65944C50.3313 5.65944 50.4505 5.83028 50.4505 6.1728V7.6598L51.755 5.89497C51.871 5.73823 51.9959 5.66027 52.1288 5.66027C52.3477 5.66027 52.4564 5.82199 52.4564 6.14626V8.39625C52.4564 8.73793 52.338 8.90878 52.1029 8.90878C51.8677 8.90878 51.7502 8.73793 51.7502 8.39708L51.751 6.93827Z" fill="white"/>
<path d="M56.0781 7.17547V7.18874C56.4097 7.32475 56.5759 7.56692 56.5759 7.91441C56.5759 8.57705 56.1689 8.90878 55.3549 8.90878C55.0979 8.90878 54.879 8.8781 54.7006 8.81838C54.4371 8.72882 54.3057 8.58037 54.3057 8.37303C54.3057 8.19141 54.403 8.10018 54.5984 8.10018C54.6811 8.10018 54.763 8.1176 54.8449 8.15077C54.9665 8.20219 55.0436 8.23204 55.0744 8.23951C55.14 8.25692 55.2373 8.26522 55.3679 8.26522C55.6824 8.26522 55.8397 8.14165 55.8397 7.89368C55.8397 7.78669 55.8032 7.69629 55.7287 7.62082C55.6727 7.56028 55.59 7.52462 55.4822 7.51301C55.4562 7.51052 55.3654 7.50886 55.2098 7.50886C54.9155 7.50886 54.7679 7.40851 54.7679 7.20864C54.7679 7.11908 54.8092 7.04527 54.8911 6.98638C54.9527 6.94326 55.0346 6.91755 55.1376 6.90842C55.1571 6.90511 55.2446 6.90345 55.4011 6.90345C55.5089 6.90345 55.5973 6.88271 55.6687 6.83876C55.7562 6.78402 55.8 6.7069 55.8 6.60572C55.8 6.37848 55.6589 6.26486 55.3752 6.26486C55.2884 6.26486 55.1733 6.28393 55.033 6.32291C54.8928 6.36189 54.7865 6.38263 54.716 6.38263C54.5206 6.38263 54.4233 6.2914 54.4233 6.10812C54.4233 6.04674 54.4493 5.98703 54.5044 5.92981C54.6714 5.74984 54.9673 5.66027 55.393 5.66027C56.13 5.66027 56.4981 5.95137 56.4981 6.53356C56.4989 6.8371 56.3586 7.05107 56.0781 7.17547Z" fill="white"/>
<path d="M59.5896 5.65527C59.8425 5.65527 60.0161 5.7946 60.1133 6.07243L60.8949 8.35227C60.929 8.45096 60.9468 8.5256 60.9468 8.57785C60.9468 8.67654 60.912 8.75616 60.8439 8.8167C60.7757 8.87724 60.6939 8.90792 60.5974 8.90792C60.4182 8.90792 60.2933 8.7943 60.2228 8.56624L60.1077 8.1947H59.0115L58.8834 8.59195C58.8161 8.80177 58.7018 8.9071 58.5437 8.9071C58.444 8.9071 58.3629 8.87558 58.3013 8.81421C58.2388 8.75118 58.2072 8.66991 58.2072 8.56873C58.2072 8.49326 58.2194 8.42442 58.2413 8.36056L59.0496 6.12467C59.1631 5.81201 59.3431 5.65527 59.5896 5.65527ZM59.5685 6.44231L59.215 7.55611H59.9163L59.5758 6.44231H59.5685Z" fill="white"/>
<path d="M63.4546 8.26936H64.6869V6.1728C64.6869 5.83028 64.8053 5.65944 65.0404 5.65944C65.2764 5.65944 65.3939 5.83028 65.3939 6.1728V8.26936C65.638 8.26936 65.7588 8.3722 65.7588 8.57787V9.15592C65.7588 9.37072 65.6542 9.4777 65.4442 9.4777C65.3485 9.4777 65.2715 9.44867 65.2147 9.39062C65.158 9.33257 65.1304 9.25461 65.1304 9.15592V8.87395H63.2332C62.9105 8.87395 62.7484 8.7031 62.7484 8.36059V6.1728C62.7484 5.83028 62.8667 5.65944 63.1019 5.65944C63.3362 5.65944 63.4554 5.83028 63.4554 6.1728L63.4546 8.26936Z" fill="white"/>
<path d="M69.5897 6.93827L68.3095 8.6691C68.1911 8.82916 68.0549 8.90878 67.9016 8.90878C67.6884 8.90878 67.5822 8.7653 67.5822 8.47835V6.17197C67.5822 5.83028 67.7006 5.65944 67.9357 5.65944C68.17 5.65944 68.2884 5.83028 68.2884 6.1728V7.6598L69.5937 5.89497C69.7097 5.73823 69.8345 5.66027 69.9675 5.66027C70.1864 5.66027 70.2951 5.82199 70.2951 6.14626V8.39625C70.2951 8.73793 70.1767 8.90878 69.9416 8.90878C69.7064 8.90878 69.5897 8.73793 69.5897 8.39625V6.93827Z" fill="white"/>
<path d="M74.5841 6.20766V8.39628C74.5841 8.73796 74.4657 8.90881 74.2314 8.90881C73.9954 8.90881 73.8779 8.73879 73.8779 8.39794V7.61753L73.0525 8.67493C72.9309 8.83085 72.806 8.90881 72.6779 8.90881C72.5855 8.90881 72.5052 8.87895 72.4388 8.82007C72.3723 8.76118 72.339 8.68489 72.339 8.592C72.339 8.47589 72.4079 8.33905 72.5466 8.17899L73.1044 7.54455C72.8782 7.50723 72.6974 7.41268 72.5636 7.26257C72.4306 7.11246 72.3642 6.92089 72.3642 6.6895C72.3642 6.39758 72.4655 6.15956 72.669 5.97545C72.8709 5.79133 73.1636 5.69928 73.5463 5.69928H74.0944C74.2817 5.69928 74.4106 5.73577 74.4803 5.80958C74.5492 5.88422 74.5841 6.01608 74.5841 6.20766ZM73.8787 7.13817V6.36523H73.5422C73.2479 6.36523 73.1004 6.49129 73.1004 6.74341C73.1004 7.00714 73.2512 7.139 73.5511 7.139L73.8787 7.13817Z" fill="white"/>
</svg>
