<svg width="115" height="25" viewBox="0 0 115 25" fill="none" xmlns="http://www.w3.org/2000/svg">
<path d="M101.253 20.2079L99.1907 16.0869L97.1255 20.2079H101.253ZM54.9968 10.3452L50.8701 12.4051L54.9968 14.4663V10.3452ZM17.7136 14.993L19.7776 19.114L21.8428 14.993H17.7136ZM112.103 6.21397C111.413 6.21397 110.743 6.73812 110.743 7.53449C110.743 8.38909 111.433 8.87274 112.103 8.87274C112.851 8.87274 113.493 8.3701 113.493 7.56361C113.493 6.73812 112.822 6.21397 112.112 6.21397H112.103ZM106.417 10.4275V8.81703H109.848C109.235 8.24349 109.235 7.47625 109.235 7.25215C109.235 6.12788 110.043 4.60352 112.084 4.60352C114.028 4.60352 115 5.95189 115 7.32052C115 8.0789 114.631 8.6613 114.242 8.88413H114.814V10.4275H106.417ZM112.142 15.8324C112.637 15.8324 113.493 15.4639 113.493 14.4929C113.493 13.9206 113.22 13.5699 112.89 13.3661C112.676 13.2306 112.443 13.1622 112.2 13.1432C111.957 13.1242 111.715 13.1723 111.491 13.2787C111.122 13.4534 110.743 13.8218 110.743 14.503C110.743 15.426 111.52 15.8324 112.131 15.8324H112.142ZM114.814 11.5315V13.1432H114.231C114.758 13.4344 115 14.1042 115 14.7347C115 16.4439 113.659 17.4441 112.112 17.4441C110.343 17.4441 109.235 16.1729 109.235 14.7347C109.235 13.8522 109.663 13.3572 109.994 13.1432H109.421V11.5315H114.814ZM106.417 20.2079V18.5962H114.814V20.2079H106.417Z" fill="white"/>
<path d="M71.5161 22.3868L72.7205 25C78.4369 20.6333 79.4892 15.7564 75.7682 10.53C72.8206 6.38863 76.0649 2.70561 77.0411 1.74845L74.8529 0C73.4228 1.5674 69.6702 6.46587 72.9512 11.3922C76.1308 16.164 75.8012 18.7506 71.5161 22.3868ZM27.1041 22.3868L28.3085 25C34.025 20.6333 35.0772 15.7564 31.355 10.53C28.4086 6.38863 31.6517 2.70561 32.6279 1.74845L30.4409 0C29.0096 1.5674 25.2569 6.46587 28.5405 11.3922C31.7189 16.164 31.3892 18.7506 27.1041 22.3868ZM102.81 4.60346L99.1907 10.8655L95.5686 4.60346H92.6222L99.1907 15.9653L105.759 4.60346H102.81ZM43.7717 5.48845C42.7398 4.88327 41.4758 4.60346 39.7934 4.60346H36.1041V20.2079H39.053V7.54709H39.7934C41.8345 7.54709 43.2342 8.04973 43.2342 9.88175C43.2342 11.5922 41.548 12.3417 39.5944 12.4025C39.5348 12.4038 39.3154 12.4038 39.1697 12.405L41.1284 15.1993C42.097 15.0284 42.9667 14.7144 43.6931 14.27C43.7464 14.2358 43.7996 14.1991 43.8529 14.1636C45.3349 13.1849 46.1831 11.6353 46.1831 9.88175C46.1831 7.95984 45.326 6.40003 43.7717 5.48845ZM67.1143 14.1636C68.5951 13.1849 69.4432 11.6353 69.4432 9.88175C69.4432 7.95984 68.5862 6.40003 67.0306 5.48845C66.0012 4.88327 64.7359 4.60346 63.0536 4.60346H59.3643V20.2079H62.3132V7.54709H63.0536C65.0947 7.54709 66.4956 8.04973 66.4956 9.88175C66.4956 11.5922 64.8094 12.3417 62.8558 12.4025C62.7937 12.4038 62.5769 12.4038 62.4311 12.405L67.9016 20.2079H71.3512L67.1143 14.1636ZM87.0325 12.405L92.5031 4.60346H89.0521L83.5829 12.405L89.0521 20.2079H92.5031L87.0325 12.405ZM83.465 4.60346H80.5174V20.2079H83.465V4.60346ZM6.51644 12.405L11.987 4.60346H8.5373L3.06679 12.405L8.5373 20.2079H11.987L6.51644 12.405ZM2.94888 4.60346H0V20.2079H2.94888V4.60346ZM57.0911 7.54709V4.60346H47.8058V20.2079H57.0911V17.2643H50.7522V7.54709H57.0911ZM27.3437 20.2079H24.3948L19.7775 10.3198L15.1615 20.2079H12.2114L19.7775 4.00587L27.3437 20.2079Z" fill="white"/>
</svg>
