<svg width="83" height="25" viewBox="0 0 83 25" fill="none" xmlns="http://www.w3.org/2000/svg">
<path d="M40.6913 11.3305C40.9118 11.4767 41.2427 11.5863 41.5735 11.5863C42.0881 11.5863 42.3822 11.3305 42.3822 10.9284C42.3822 10.5629 42.1616 10.3802 41.647 10.1609C41.0221 9.9416 40.6178 9.61265 40.6178 9.06441C40.6178 8.47961 41.1324 8.04102 41.8676 8.04102C42.2719 8.04102 42.5292 8.11412 42.713 8.22376L42.566 8.62581C42.4557 8.55271 42.1984 8.44306 41.8308 8.44306C41.3162 8.44306 41.0956 8.77201 41.0956 9.02786C41.0956 9.39336 41.3162 9.5761 41.8676 9.75885C42.5292 10.0147 42.8233 10.3071 42.8233 10.8919C42.8233 11.4767 42.3822 11.9884 41.5 11.9884C41.1324 11.9884 40.7281 11.8787 40.5075 11.7325L40.6913 11.3305Z" fill="white"/>
<path d="M43.8525 10.6359C43.8525 11.2938 44.2936 11.5862 44.8082 11.5862C45.1758 11.5862 45.3964 11.5131 45.5802 11.44L45.6537 11.8055C45.4699 11.8786 45.1758 11.9883 44.7347 11.9883C43.8893 11.9883 43.3747 11.44 43.3747 10.5994C43.3747 9.75872 43.8893 9.10083 44.6612 9.10083C45.5434 9.10083 45.8007 9.90492 45.8007 10.3801C45.8007 10.4897 45.8007 10.5628 45.8007 10.6359H43.8525ZM45.3228 10.307C45.3228 9.97802 45.1758 9.50288 44.6244 9.50288C44.1098 9.50288 43.8893 9.97802 43.8525 10.307H45.3228Z" fill="white"/>
<path d="M48.4105 11.8421C48.2635 11.9152 47.9694 11.9883 47.6019 11.9883C46.7564 11.9883 46.2418 11.4401 46.2418 10.5994C46.2418 9.7588 46.8299 9.13745 47.7121 9.13745C48.0062 9.13745 48.2635 9.21055 48.4105 9.28365L48.3003 9.64915C48.19 9.57605 48.0062 9.50295 47.7121 9.50295C47.0873 9.50295 46.7197 9.97809 46.7197 10.5629C46.7197 11.1842 47.124 11.5863 47.6754 11.5863C47.9694 11.5863 48.1532 11.5132 48.3003 11.4401L48.4105 11.8421Z" fill="white"/>
<path d="M51.2777 11.1842C51.2777 11.4766 51.2777 11.7325 51.3144 11.9152H50.8733L50.8366 11.4766C50.7263 11.6959 50.3955 11.9883 49.9176 11.9883C49.4765 11.9883 48.9619 11.7325 48.9619 10.7822V9.174H49.4765V10.6725C49.4765 11.1842 49.6603 11.5497 50.1014 11.5497C50.4322 11.5497 50.6895 11.3304 50.7631 11.0746C50.7998 11.0015 50.7998 10.9284 50.7998 10.8187V9.13745H51.3144V11.1842" fill="white"/>
<path d="M52.1231 10.051C52.1231 9.72207 52.1231 9.46623 52.0863 9.21038H52.5274L52.5642 9.75862C52.6745 9.39313 53.0053 9.17383 53.3361 9.17383C53.3729 9.17383 53.4464 9.17383 53.4832 9.17383V9.64897C53.4096 9.64897 53.3729 9.64897 53.2994 9.64897C52.9318 9.64897 52.7112 9.90482 52.6377 10.2703C52.6377 10.3434 52.6377 10.4165 52.6377 10.5262V11.9882H52.1231V10.051Z" fill="white"/>
<path d="M54.2551 8.69891C54.0713 8.69891 53.9243 8.55271 53.9243 8.36996C53.9243 8.18721 54.0713 8.04102 54.2551 8.04102C54.4389 8.04102 54.5859 8.18721 54.5859 8.36996C54.5859 8.55271 54.4756 8.69891 54.2551 8.69891ZM54.5124 11.9518H54.0345V9.21061H54.5491V11.9518H54.5124Z" fill="white"/>
<path d="M55.946 8.55273V9.21063H56.6811V9.57613H55.946V11.0747C55.946 11.4036 56.0562 11.6229 56.3135 11.6229C56.4606 11.6229 56.5341 11.6229 56.6076 11.5864L56.6444 11.9519C56.5341 11.9884 56.3871 12.025 56.2033 12.025C55.9827 12.025 55.7989 11.9519 55.6519 11.8057C55.5049 11.6595 55.4681 11.4036 55.4681 11.0747V9.57613H55.027V9.21063H55.4681V8.69893L55.946 8.55273Z" fill="white"/>
<path d="M57.4898 9.21038L58.078 10.8186C58.1515 11.0013 58.225 11.2206 58.2617 11.3668C58.2985 11.2206 58.372 11.0013 58.4455 10.782L58.9969 9.17383H59.5115L58.7396 11.1475C58.372 12.0978 58.1515 12.573 57.7839 12.8654C57.5266 13.0846 57.306 13.1577 57.159 13.1943L57.0487 12.7923C57.159 12.7557 57.3428 12.6826 57.4898 12.5364C57.6368 12.4268 57.7839 12.244 57.8942 11.9882C57.9309 11.9516 57.9309 11.9151 57.9309 11.8785C57.9309 11.842 57.9309 11.8054 57.8942 11.7689L56.8649 9.24693H57.4898" fill="white"/>
<path d="M40.6913 16.9955C40.9118 17.1417 41.2427 17.2514 41.5735 17.2514C42.0881 17.2514 42.3822 16.9955 42.3822 16.5935C42.3822 16.228 42.1616 16.0452 41.647 15.8259C41.0221 15.6066 40.6178 15.2777 40.6178 14.7294C40.6178 14.1447 41.1324 13.7061 41.8676 13.7061C42.2719 13.7061 42.5292 13.7792 42.713 13.8888L42.566 14.2908C42.4557 14.2178 42.1984 14.1081 41.8308 14.1081C41.3162 14.1081 41.0956 14.437 41.0956 14.6929C41.0956 15.0584 41.3162 15.2411 41.8676 15.4239C42.5292 15.6797 42.8233 15.9721 42.8233 16.5569C42.8233 17.1417 42.3822 17.6534 41.5 17.6534C41.1324 17.6534 40.7281 17.5438 40.5075 17.3976L40.6913 16.9955Z" fill="white"/>
<path d="M44.1098 14.218V14.8759H44.845V15.2414H44.1098V16.7034C44.1098 17.0323 44.2201 17.2516 44.4774 17.2516C44.6244 17.2516 44.698 17.2516 44.7715 17.2151L44.8082 17.5806C44.6979 17.6171 44.5509 17.6537 44.3671 17.6537C44.1466 17.6537 43.9628 17.5806 43.8157 17.4344C43.6687 17.2882 43.632 17.0323 43.632 16.7034V15.2049H43.1909V14.8394H43.632V14.3277L44.1098 14.218Z" fill="white"/>
<path d="M47.3446 16.959C47.3446 17.2148 47.3446 17.4341 47.3813 17.6169H46.9402L46.9035 17.2879C46.7564 17.5072 46.4624 17.69 46.058 17.69C45.5067 17.69 45.2126 17.2879 45.2126 16.8859C45.2126 16.228 45.8007 15.8625 46.8667 15.8625V15.7894C46.8667 15.5701 46.7932 15.1315 46.2418 15.1681C45.9845 15.1681 45.7272 15.2412 45.5067 15.3874L45.3964 15.0584C45.6169 14.9122 45.9477 14.8391 46.3153 14.8391C47.1608 14.8391 47.3813 15.4239 47.3813 15.9722V16.959H47.3446ZM46.8667 16.228C46.3153 16.228 45.6904 16.3011 45.6904 16.8493C45.6904 17.1783 45.911 17.3245 46.1683 17.3245C46.5359 17.3245 46.7564 17.1052 46.8299 16.8493C46.8299 16.8128 46.8667 16.7397 46.8667 16.7031V16.228Z" fill="white"/>
<path d="M48.1532 15.6068C48.1532 15.3144 48.1532 15.0951 48.1165 14.8758H48.5576L48.5943 15.3144C48.7413 15.0586 49.0354 14.8027 49.5133 14.8027C49.8809 14.8027 50.5057 15.022 50.5057 15.9723V17.6171H49.9911V16.0454C49.9911 15.6068 49.8073 15.2413 49.3662 15.2413C49.0354 15.2413 48.7781 15.4606 48.7046 15.753C48.6678 15.8261 48.6678 15.8992 48.6678 15.9723V17.6171H48.1532V15.6068Z" fill="white"/>
<path d="M53.7037 13.5964V16.9225C53.7037 17.1783 53.7037 17.4342 53.7405 17.6169H53.2994L53.2626 17.1418C53.1156 17.4342 52.7847 17.69 52.3437 17.69C51.682 17.69 51.1674 17.1418 51.1674 16.3011C51.1674 15.3874 51.7555 14.8391 52.4172 14.8391C52.8583 14.8391 53.1156 15.0219 53.2626 15.2412V13.5964H53.7037ZM53.1891 15.9722C53.1891 15.8991 53.1891 15.826 53.1523 15.7529C53.0788 15.4239 52.8215 15.1681 52.4172 15.1681C51.9026 15.1681 51.5717 15.6067 51.5717 16.228C51.5717 16.7763 51.8658 17.2514 52.3804 17.2514C52.7112 17.2514 53.0053 17.0321 53.1156 16.6666C53.1523 16.5935 53.1523 16.5204 53.1523 16.4473V15.9722H53.1891Z" fill="white"/>
<path d="M56.4973 16.959C56.4973 17.2148 56.4973 17.4341 56.5341 17.6169H56.093L56.0562 17.2879C55.9092 17.5072 55.6151 17.69 55.2108 17.69C54.6594 17.69 54.3654 17.2879 54.3654 16.8859C54.3654 16.228 54.9535 15.8625 56.0195 15.8625V15.7894C56.0195 15.5701 55.946 15.1315 55.3946 15.1681C55.1373 15.1681 54.88 15.2412 54.6594 15.3874L54.5491 15.0584C54.7697 14.9122 55.1005 14.8391 55.4681 14.8391C56.3135 14.8391 56.5341 15.4239 56.5341 15.9722V16.959H56.4973ZM55.9827 16.228C55.4313 16.228 54.8065 16.3011 54.8065 16.8493C54.8065 17.1783 55.027 17.3245 55.2843 17.3245C55.6519 17.3245 55.8724 17.1052 55.946 16.8493C55.946 16.8128 55.9827 16.7397 55.9827 16.7031V16.228Z" fill="white"/>
<path d="M57.306 15.7163C57.306 15.3874 57.306 15.1315 57.2693 14.8757H57.7104L57.7471 15.4239H57.7839C57.8942 15.0584 58.225 14.8391 58.5558 14.8391C58.5926 14.8391 58.6293 14.8391 58.7029 14.8391V15.3143C58.6293 15.3143 58.5926 15.3143 58.5191 15.3143C58.1515 15.3143 57.9309 15.5701 57.8574 15.9356C57.8574 16.0087 57.8574 16.0818 57.8574 16.1914V17.6534H57.3428L57.306 15.7163Z" fill="white"/>
<path d="M61.4965 13.5964V16.9225C61.4965 17.1783 61.4965 17.4342 61.5332 17.6169H61.0921L61.0554 17.1418C60.9083 17.4342 60.5775 17.69 60.0997 17.69C59.438 17.69 58.9234 17.1418 58.9234 16.3011C58.9234 15.3874 59.4748 14.8391 60.1732 14.8391C60.6143 14.8391 60.8716 15.0219 61.0186 15.2412V13.5964H61.4965ZM61.0186 15.9722C61.0186 15.8991 61.0186 15.826 60.9819 15.7529C60.9083 15.4239 60.6143 15.1681 60.2467 15.1681C59.7321 15.1681 59.438 15.6067 59.438 16.228C59.438 16.7763 59.7321 17.2514 60.2467 17.2514C60.5775 17.2514 60.9083 17.0321 60.9819 16.6666C60.9819 16.5935 61.0186 16.5204 61.0186 16.4473V15.9722Z" fill="white"/>
<path d="M62.2684 17.1054C62.4154 17.215 62.6728 17.2881 62.9301 17.2881C63.2976 17.2881 63.4447 17.1054 63.4447 16.8861C63.4447 16.6302 63.2976 16.5206 62.9301 16.3744C62.4154 16.1916 62.1949 15.9358 62.1949 15.6068C62.1949 15.1682 62.5625 14.8027 63.1506 14.8027C63.4447 14.8027 63.6652 14.8758 63.8123 14.9855L63.702 15.351C63.5917 15.2779 63.4079 15.2048 63.1506 15.2048C62.8565 15.2048 62.7095 15.3875 62.7095 15.5703C62.7095 15.7896 62.8565 15.8992 63.2241 16.0454C63.702 16.2282 63.9593 16.4475 63.9593 16.8861C63.9593 17.3612 63.5917 17.7267 62.9301 17.7267C62.636 17.7267 62.3419 17.6536 62.1581 17.544L62.2684 17.1054Z" fill="white"/>
<path d="M68.5173 17.5073C68.3335 17.5804 67.9659 17.69 67.488 17.69C66.422 17.69 65.5766 16.9956 65.5766 15.7529C65.5766 14.5468 66.3853 13.7427 67.5983 13.7427C68.0762 13.7427 68.3702 13.8523 68.5173 13.9254L68.407 14.3275C68.2232 14.2544 67.9659 14.1813 67.6351 14.1813C66.7161 14.1813 66.128 14.7661 66.128 15.7529C66.128 16.7032 66.6793 17.288 67.5983 17.288C67.8924 17.288 68.2232 17.2149 68.407 17.1418L68.5173 17.5073Z" fill="white"/>
<path d="M70.1714 17.6902C69.4362 17.6902 68.8481 17.1419 68.8481 16.2647C68.8481 15.351 69.473 14.8027 70.2082 14.8027C71.0168 14.8027 71.5315 15.3875 71.5315 16.1916C71.5315 17.215 70.8331 17.6902 70.1714 17.6902ZM70.1714 17.2881C70.6493 17.2881 71.0168 16.8495 71.0168 16.2282C71.0168 15.753 70.7963 15.1682 70.1714 15.1682C69.5833 15.1682 69.326 15.7165 69.326 16.2282C69.3627 16.8495 69.6935 17.2881 70.1714 17.2881Z" fill="white"/>
<path d="M74.4721 16.8495C74.4721 17.1419 74.4721 17.3978 74.5089 17.5805H74.0678L74.031 17.1419C73.9207 17.3612 73.5899 17.6536 73.112 17.6536C72.671 17.6536 72.1563 17.3978 72.1563 16.4475V14.8393H72.671V16.3378C72.671 16.8495 72.818 17.215 73.2958 17.215C73.6267 17.215 73.8472 16.9957 73.9575 16.7399C73.9942 16.6668 73.9942 16.5937 73.9942 16.484V14.8027H74.5089V16.8495" fill="white"/>
<path d="M75.3175 15.6068C75.3175 15.3144 75.3176 15.0951 75.2808 14.8758H75.7219L75.7586 15.3144C75.9057 15.0586 76.1997 14.8027 76.6776 14.8027C77.0452 14.8027 77.6701 15.022 77.6701 15.9723V17.6171H77.1555V16.0454C77.1555 15.6068 76.9717 15.2413 76.5306 15.2413C76.1997 15.2413 75.9424 15.4606 75.8689 15.753C75.8322 15.8261 75.8322 15.8992 75.8322 15.9723V17.6171H75.3175V15.6068Z" fill="white"/>
<path d="M80.4637 17.5074C80.3167 17.5805 80.0593 17.6536 79.655 17.6536C78.8096 17.6536 78.295 17.1054 78.295 16.2647C78.295 15.4241 78.8831 14.8027 79.7653 14.8027C80.0593 14.8027 80.3167 14.8758 80.4637 14.9489L80.3534 15.3144C80.2431 15.2413 80.0593 15.1682 79.7653 15.1682C79.1404 15.1682 78.7728 15.6434 78.7728 16.2282C78.7728 16.8495 79.1771 17.2516 79.7285 17.2516C80.0226 17.2516 80.2064 17.1785 80.3534 17.1054L80.4637 17.5074Z" fill="white"/>
<path d="M81.2723 14.3639C81.0886 14.3639 80.9415 14.2178 80.9415 14.035C80.9415 13.8523 81.0886 13.7061 81.2723 13.7061C81.4561 13.7061 81.6032 13.8523 81.6032 14.035C81.6032 14.2178 81.4929 14.3639 81.2723 14.3639ZM81.5297 17.6169H81.015V14.8756H81.5297V17.6169Z" fill="white"/>
<path d="M82.8897 13.5964H82.3751V17.6169H82.8897V13.5964Z" fill="white"/>
<path fill-rule="evenodd" clip-rule="evenodd" d="M38.1182 15.7895L31.9796 17.705V7.71202H28.12V17.7266H31.9102L8.60142 25L0 1.71784L30.9872 0L38.1182 15.7895ZM15.806 11.1111C15.806 11.6959 15.659 12.2076 15.4017 12.6828C15.1444 13.1214 14.7768 13.5234 14.2989 13.8158C13.8211 14.1082 13.2329 14.3275 12.5713 14.4737C11.9096 14.6199 11.1745 14.693 10.329 14.693H9.74091V17.6901H5.91806V7.71202H10.4026C12.0934 7.71202 13.4167 8.00442 14.3724 8.55267C15.3282 9.10091 15.806 9.97811 15.806 11.1111ZM12.1302 11.1477C12.1302 10.2705 11.4685 9.83191 10.182 9.83191H9.70415V12.5H10.1453C10.7701 12.5 11.2848 12.3904 11.6156 12.1711C11.9464 11.9883 12.1302 11.6228 12.1302 11.1477ZM23.2679 17.8729C24.0399 17.8729 24.7015 17.7998 25.2896 17.6901C25.7097 17.6118 25.8672 17.5708 26.1372 17.5005L26.1373 17.5005L26.1373 17.5005L26.1376 17.5004C26.2456 17.4723 26.3715 17.4395 26.5394 17.3977V14.8758C26.0981 15.0783 25.6568 15.1873 25.2444 15.2892L25.1426 15.3144C24.7015 15.424 24.2236 15.4606 23.7825 15.4606C23.3414 15.4606 22.9371 15.3875 22.5328 15.2778C22.1284 15.1682 21.7976 14.9855 21.5035 14.7662C21.2095 14.5469 20.9889 14.2545 20.8051 13.9255C20.6213 13.56 20.5478 13.158 20.5478 12.7194C20.5478 11.8056 20.8051 11.1477 21.3565 10.6726C21.9079 10.234 22.6063 9.97814 23.4885 9.97814C24.0031 9.97814 24.5177 10.0512 24.9956 10.1974C25.4734 10.3071 25.9145 10.4898 26.2821 10.7091V8.04101C26.07 7.9599 25.9521 7.91479 25.8318 7.87692C25.6812 7.82946 25.5269 7.79337 25.1794 7.71206C24.5545 7.60241 23.8561 7.56586 23.1209 7.56586C22.1652 7.56586 21.283 7.67551 20.4743 7.93136C19.6656 8.18721 18.9672 8.5527 18.3791 8.9913C17.791 9.46644 17.3499 10.0147 17.019 10.636C16.6882 11.2939 16.5412 11.9884 16.5412 12.7559C16.5412 13.5235 16.6882 14.2179 16.9823 14.8758C17.2764 15.4971 17.7174 16.0454 18.3056 16.484C18.8937 16.9226 19.5921 17.2515 20.4376 17.5074C21.2462 17.7632 22.2019 17.8729 23.2679 17.8729ZM31.7223 6.14035C32.1634 5.77485 32.384 5.22661 32.384 4.56871C32.384 3.87427 32.1634 3.32602 31.7223 2.96053C31.2812 2.55848 30.7298 2.37573 30.0682 2.37573C29.4066 2.37573 28.8552 2.55848 28.4141 2.96053C27.973 3.36257 27.7524 3.87427 27.7524 4.56871C27.7524 5.22661 27.973 5.77485 28.4141 6.14035C28.8552 6.5424 29.4066 6.72515 30.0682 6.72515C30.7298 6.72515 31.2812 6.50585 31.7223 6.14035Z" fill="white"/>
<path d="M83 8.95482C83 9.57616 82.4854 10.0879 81.8237 10.0879C81.1621 10.0879 80.6475 9.57616 80.6475 8.95482C80.6475 8.33347 81.1621 7.82178 81.8237 7.82178C82.4854 7.82178 83 8.33347 83 8.95482ZM81.015 8.95482C81.015 9.42996 81.3826 9.79546 81.8237 9.79546C82.3016 9.79546 82.6324 9.42996 82.6324 8.95482C82.6324 8.47967 82.2648 8.11418 81.787 8.11418C81.3459 8.11418 81.015 8.47967 81.015 8.95482ZM81.6767 9.50306H81.3459V8.44312C81.4194 8.44312 81.6032 8.40657 81.8237 8.40657C82.0443 8.40657 82.1545 8.44312 82.2281 8.47967C82.3016 8.51622 82.3383 8.58932 82.3383 8.69897C82.3383 8.80862 82.2281 8.88172 82.081 8.91827C82.1913 8.95482 82.2648 9.02792 82.3016 9.17412C82.3383 9.32032 82.3383 9.39341 82.3751 9.42996H82.0075C81.9708 9.39341 81.9708 9.28377 81.934 9.21067C81.8972 9.10102 81.8605 9.06447 81.7502 9.06447H81.6399V9.50306H81.6767ZM81.7135 8.91827H81.8237C81.934 8.91827 82.0075 8.88172 82.0075 8.80862C82.0075 8.73552 81.934 8.66242 81.8237 8.66242C81.787 8.66242 81.7502 8.66242 81.7135 8.66242V8.91827Z" fill="white"/>
</svg>
