<svg width="57" height="25" viewBox="0 0 57 25" fill="none" xmlns="http://www.w3.org/2000/svg">
<path fill-rule="evenodd" clip-rule="evenodd" d="M23.0518 13.3429L20.1949 21.1797L19.8904 19.5872C19.1788 17.6349 17.6385 15.5866 15.8446 14.7563L18.4584 24.8191L21.5478 24.8174L26.1421 13.3425H23.0518V13.3429Z" fill="white"/>
<path fill-rule="evenodd" clip-rule="evenodd" d="M28.4182 24.8299H25.5003L27.3268 13.3315H30.2455L28.4182 24.8299Z" fill="white"/>
<path fill-rule="evenodd" clip-rule="evenodd" d="M39.0065 13.6153C38.4298 13.3832 37.5197 13.1311 36.3909 13.1311C33.5036 13.1311 31.475 14.6923 31.4574 16.9253C31.4387 18.579 32.9078 19.5017 34.012 20.0511C35.1517 20.6133 35.5325 20.9741 35.529 21.4773C35.5178 22.2478 34.6172 22.5988 33.7801 22.5988C32.6133 22.5988 31.9917 22.4257 31.0352 21.9978L30.6561 21.8146L30.2477 24.3878C30.9306 24.7081 32.1909 24.9857 33.5013 25C36.5655 25 38.5589 23.4567 38.5826 21.0734C38.595 19.7616 37.8153 18.7685 36.1296 17.9486C35.1122 17.416 34.483 17.0625 34.4924 16.5221C34.4933 16.0452 35.0202 15.5337 36.1648 15.5337C37.1205 15.5175 37.8081 15.7407 38.3489 15.9758L38.6093 16.1077L39.0065 13.6153Z" fill="white"/>
<path fill-rule="evenodd" clip-rule="evenodd" d="M46.4922 13.3437H44.2372C43.5381 13.3437 43.0144 13.5463 42.7057 14.298L38.373 24.834H41.4384C41.4384 24.834 41.9398 23.4161 42.0531 23.1051C42.3873 23.1051 45.3649 23.112 45.7899 23.112C45.8801 23.5128 46.1451 24.8338 46.1451 24.8338H48.8556L46.4922 13.3435V13.3437ZM42.8928 20.7532C43.1351 20.0933 44.0555 17.5391 44.0555 17.5391C44.0378 17.5704 44.2949 16.8742 44.4437 16.4436L44.6382 17.4348C44.6382 17.4348 45.1988 20.1788 45.3159 20.7532C44.8615 20.7532 43.4619 20.7532 42.8928 20.7532Z" fill="white"/>
<path fill-rule="evenodd" clip-rule="evenodd" d="M17.5448 13.3367H12.8378L12.8102 13.5344C16.4702 14.4866 18.8851 16.8248 19.8904 19.5899L18.8672 14.3052C18.6914 13.5783 18.1792 13.3623 17.5448 13.3367Z" fill="white"/>
<path fill-rule="evenodd" clip-rule="evenodd" d="M2.05707 0.364014L3.526 8.06762L7.26786 0.466069H9.24366L4.00822 10.5582H2.14685L0 0.71341L2.05707 0.364014Z" fill="white"/>
<path fill-rule="evenodd" clip-rule="evenodd" d="M13.6874 7.3404H9.24894C9.12753 8.70937 9.753 9.30651 10.8127 9.30651C11.7004 9.30651 12.4813 8.97141 13.3218 8.43264L13.315 9.80143C12.4912 10.3259 11.5384 10.6609 10.4216 10.6609C8.4888 10.6609 7.21244 9.5394 7.59578 7.0052C7.94171 4.71869 9.49702 3.33545 11.3009 3.33545C13.377 3.33545 14.0674 4.92287 13.7656 6.91803C13.7436 7.06358 13.7028 7.23844 13.6874 7.3404ZM11.0753 4.54418C10.3878 4.54418 9.74578 5.09737 9.44286 6.24806H12.1915C12.2425 5.15574 11.9056 4.54418 11.0753 4.54418Z" fill="white"/>
<path fill-rule="evenodd" clip-rule="evenodd" d="M16.5805 6.48064L15.9701 10.5147H14.2519L15.3164 3.48032H16.7767L16.7777 4.89314C17.3594 4.07746 18.1501 3.39316 19.2327 3.33496L19.2425 5.06782C18.1578 5.14081 17.1819 5.72325 16.5805 6.48064Z" fill="white"/>
<path fill-rule="evenodd" clip-rule="evenodd" d="M19.22 10.515L20.2843 3.48064H22.0024L20.9381 10.515H19.22ZM21.3363 2.30097C20.7637 2.30097 20.3672 1.89329 20.4554 1.31076C20.5458 0.71362 21.0677 0.29126 21.6404 0.29126C22.1989 0.29126 22.5931 0.71362 22.5028 1.31076C22.4146 1.89329 21.8949 2.30097 21.3363 2.30097Z" fill="white"/>
<path fill-rule="evenodd" clip-rule="evenodd" d="M26.7605 1.55827C26.1733 1.55827 25.8189 1.82029 25.724 2.44666L25.5676 3.48055H26.8848L26.8835 4.90779H25.3516L24.5032 10.5149H22.7995L23.648 4.90779H22.6457L22.8615 3.48055H23.8638L24.0468 2.27182C24.2825 0.713545 25.3442 0.131104 26.7615 0.131104C27.0623 0.131104 27.287 0.16024 27.4545 0.189297L27.4676 1.61647C27.3 1.58741 27.0467 1.55827 26.7605 1.55827Z" fill="white"/>
<path fill-rule="evenodd" clip-rule="evenodd" d="M26.7793 10.515L27.8436 3.48064H29.5617L28.4973 10.515H26.7793ZM28.8955 2.30097C28.323 2.30097 27.9265 1.89329 28.0147 1.31076C28.1051 0.71362 28.627 0.29126 29.1995 0.29126C29.7581 0.29126 30.1524 0.71362 30.0621 1.31076C29.974 1.89329 29.4541 2.30097 28.8955 2.30097Z" fill="white"/>
<path fill-rule="evenodd" clip-rule="evenodd" d="M36.2228 7.3404H31.7843C31.6631 8.70937 32.2884 9.30651 33.3481 9.30651C34.2358 9.30651 35.0167 8.97141 35.8573 8.43264L35.8502 9.80143C35.0265 10.3259 34.0736 10.6609 32.9569 10.6609C31.024 10.6609 29.7479 9.5394 30.1313 7.0052C30.4772 4.71869 32.0324 3.33545 33.8363 3.33545C35.9123 3.33545 36.603 4.92287 36.3011 6.91803C36.279 7.06358 36.238 7.23844 36.2228 7.3404ZM33.6105 4.54418C32.9231 4.54418 32.281 5.09737 31.9783 6.24806H34.727C34.7777 5.15574 34.4409 4.54418 33.6105 4.54418Z" fill="white"/>
<path fill-rule="evenodd" clip-rule="evenodd" d="M41.3119 10.515L41.3162 9.53913C40.7389 10.1363 39.9867 10.6606 39.0275 10.6606C37.5812 10.6606 36.5872 9.56835 36.9462 7.19423C37.3428 4.57303 38.9365 3.40782 40.5401 3.40782C41.1988 3.40782 41.711 3.52438 42.1041 3.66983L42.6176 0.276397L44.3775 0L42.7866 10.515H41.3119ZM41.8859 5.11181C41.4873 4.9078 41.1733 4.80593 40.5863 4.80593C39.6841 4.80585 38.9134 5.54862 38.6799 7.09254C38.4729 8.46142 38.9485 9.10214 39.7073 9.10214C40.3375 9.10214 40.8813 8.7238 41.4275 8.14102L41.8859 5.11181Z" fill="white"/>
<path fill-rule="evenodd" clip-rule="evenodd" d="M48.0498 10.5807C47.2365 10.5807 46.5734 10.4481 45.9563 10.2276L47.0862 2.75908L48.4192 2.54956L47.9304 5.78172C48.3198 5.42871 48.8611 5.0757 49.5228 5.0757C50.629 5.0757 51.3697 5.91438 51.0994 7.7013C50.8024 9.66482 49.6115 10.5807 48.0498 10.5807ZM49.0097 6.24499C48.5759 6.24499 48.1403 6.5429 47.7549 6.94028L47.3893 9.35599C47.6457 9.45518 47.8231 9.49937 48.1919 9.49937C49.016 9.49937 49.5919 8.992 49.7755 7.77852C49.9308 6.75262 49.5954 6.24499 49.0097 6.24499Z" fill="white"/>
<path fill-rule="evenodd" clip-rule="evenodd" d="M54.1654 10.8011C53.5004 12.1138 52.8424 12.522 51.8336 12.522C51.6058 12.522 51.4793 12.4999 51.3651 12.4668L51.3566 11.3747C51.5235 11.4188 51.7028 11.452 51.9523 11.452C52.3319 11.452 52.6623 11.2756 52.8833 10.8895L53.056 10.5364L51.9526 5.28529L53.3351 5.10889L53.9755 8.90361L55.7093 5.18603H57L54.1654 10.8011Z" fill="white"/>
</svg>
