<svg width="95" height="25" viewBox="0 0 95 25" fill="none" xmlns="http://www.w3.org/2000/svg">
<path d="M33.0488 9.43875H35.5126L35.1864 11.397H32.7225L33.0488 9.43875ZM29.473 6.90518H32.5342L31.0824 15.6285C30.9526 16.4083 31.0273 16.7892 31.2062 17.0975C31.6228 17.9136 32.5434 17.9136 32.7736 17.9136C33.2569 17.9136 33.5942 17.823 33.9776 17.7323L34.2492 18.3126C33.5044 18.6391 32.6065 19.0562 31.0873 19.0562C30.5349 19.0562 29.3242 19.0018 28.5443 18.2945C27.8013 17.6416 27.822 16.8254 27.9579 16.0093L29.473 6.90518ZM35.0664 18.7116L37.1973 5.90771H40.2585L39.4797 10.5867C40.0095 10.1696 41.3093 9.13589 43.4729 9.13589C44.3935 9.13589 45.1629 9.35354 45.733 9.66181C47.1192 10.4598 46.905 11.7475 46.7691 12.5636L45.7459 18.7116H42.6848L43.6024 13.1983C43.7472 12.3278 43.851 11.5661 43.291 11.0583C42.9911 10.7862 42.5349 10.623 42.0055 10.623C40.9928 10.623 40.0567 11.1309 39.2896 11.7293L38.1276 18.7116H35.0664ZM52.6142 12.6724C53.3767 12.6724 53.9466 12.7553 54.509 12.8763L54.2848 14.2224C53.956 14.1515 53.5988 14.1051 53.1814 14.1051C51.8234 14.1051 50.533 14.6673 50.3368 15.8461C50.204 16.6441 50.6375 17.4965 52.1796 17.4965C53.2614 17.4965 54.0583 17.1338 54.708 16.8254L54.8874 15.7478H54.9406L55.4209 12.8645H55.3551C55.3941 12.458 55.3978 12.0442 55.246 11.6568C54.8566 10.6774 53.5839 10.4417 52.7093 10.4417C50.7529 10.4417 49.7764 11.3303 49.2347 11.82L48.5034 11.5117C49.1577 10.623 50.3439 9.02707 53.8424 9.02707C55.8448 9.02707 57.0462 9.55299 57.623 10.0971C58.6199 11.022 58.4377 12.2552 58.2959 13.1076L57.3632 18.7116H54.3941L54.5692 17.6597C53.9934 18.0768 52.6917 18.9836 50.5051 18.9836C48.1115 18.9836 46.8097 17.6778 47.0874 16.0093C47.4435 13.8694 49.8753 12.6724 52.6142 12.6724ZM76.9691 9.42607L77.3887 6.90518H80.4498L80.0302 9.42607H83.3756L83.0474 11.3973H79.7021L78.998 15.6285C78.8682 16.4083 78.943 16.7892 79.1218 17.0975C79.5384 17.9136 80.459 17.9136 80.6892 17.9136C81.1725 17.9136 81.5098 17.823 81.8932 17.7323L82.1649 18.3126C81.42 18.6391 80.522 19.0562 79.0029 19.0562C78.4506 19.0562 77.2397 19.0018 76.4598 18.2945C75.7169 17.6416 75.7377 16.8254 75.8735 16.0093L76.641 11.3973H74.9468L70.211 18.7841H69.1062L66.8985 13.3797L62.8919 18.7841H61.764L58.9484 9.42607H62.1477L63.3325 13.9237C63.4242 14.3409 63.4521 14.4497 63.5377 14.9031L67.5104 9.42607H68.5231L70.1253 13.9056C70.283 14.3409 70.2909 14.4316 70.4626 14.9212L70.9527 14.0507L73.7478 9.42607H75.1048H76.2106H76.9691ZM89.478 10.5324C87.2848 10.5324 86.6225 11.8032 86.1266 12.8695C86.0992 12.9151 85.9632 13.1673 85.8574 13.8245C85.7538 14.4681 85.8063 14.6613 85.8208 14.6993C85.8769 15.6694 86.2954 17.5509 89.4147 17.5509C91.5552 17.5509 92.5487 16.6985 93.49 15.8824L94.2013 16.1726C93.5259 17.1882 92.2654 19.0925 88.2145 19.0925C83.9795 19.0925 82.1303 16.7892 82.6041 13.9419C83.0569 11.2215 85.6347 9.00892 89.8006 9.00892C90.8133 9.00892 92.6335 9.13589 93.8733 10.2603C95.2902 11.5661 95.0265 13.289 94.8805 14.3046H86.7126C86.7229 14.17 86.7443 13.9912 86.784 13.7545C86.8857 13.1475 86.9733 12.9522 87.0152 12.89H91.7785C91.7793 12.0557 91.7796 10.5324 89.478 10.5324Z" fill="white"/>
<path fill-rule="evenodd" clip-rule="evenodd" d="M12.2871 0C19.0732 0 24.5742 5.59634 24.5742 12.5C24.5742 19.4036 19.0732 25 12.2871 25C5.50104 25 0 19.4036 0 12.5C0 5.59634 5.50104 0 12.2871 0ZM2.44172 12.5C2.44172 6.96826 6.8496 2.48408 12.2871 2.48408C17.7246 2.48408 22.1325 6.96826 22.1325 12.5C22.1325 18.0317 17.7246 22.5159 12.2871 22.5159C6.8496 22.5159 2.44172 18.0317 2.44172 12.5Z" fill="white"/>
<path d="M13.5105 17.8431C9.51255 17.4672 8.16994 17.5089 8.36141 14.1278C8.44511 12.649 9.26487 6.95508 9.26487 6.95508H12.1795L11.4734 14.1446C11.4789 14.9268 12.081 14.8246 13.5772 15.0602C14.5361 15.1911 15.4377 15.3282 15.4377 15.3282L13.5105 17.8431Z" fill="white"/>
<path fill-rule="evenodd" clip-rule="evenodd" d="M12.9361 9.15186H15.4737L15.2991 11.2783H12.7616L12.9361 9.15186Z" fill="white"/>
</svg>
