<svg width="50" height="50" viewBox="0 0 50 50" fill="none" xmlns="http://www.w3.org/2000/svg">
<path fill-rule="evenodd" clip-rule="evenodd" d="M25 0C38.8072 0 50 11.1929 50 25C50 38.8071 38.8072 50 25 50C11.1928 50 0 38.8071 0 25C0 11.1929 11.1928 0 25 0V0ZM25 3.37036C36.9458 3.37036 46.6297 13.0543 46.6297 25.0001C46.6297 36.9459 36.9458 46.6298 25 46.6298C13.0542 46.6298 3.37025 36.9459 3.37025 25.0001C3.37025 13.0543 13.0542 3.37036 25 3.37036V3.37036Z" fill="#97C11F"/>
<path fill-rule="evenodd" clip-rule="evenodd" d="M11.963 11.9631C15.5631 8.36295 20.2815 6.56299 25 6.56299V25.0001L11.963 11.9631V11.9631Z" fill="#5C7812"/>
<path fill-rule="evenodd" clip-rule="evenodd" d="M6.56305 25.0002C6.56305 19.9089 8.62673 15.2995 11.9631 11.9631L25.0001 25.0002H6.56305Z" fill="#638014"/>
<path fill-rule="evenodd" clip-rule="evenodd" d="M11.9631 38.0372C8.3631 34.4372 6.56305 29.7187 6.56305 25.0002H25.0001L11.9631 38.0372Z" fill="#678815"/>
<path fill-rule="evenodd" clip-rule="evenodd" d="M25 43.4372C19.9088 43.4372 15.2994 41.3737 11.963 38.0372L25 25.0002V43.4372Z" fill="#749717"/>
<path fill-rule="evenodd" clip-rule="evenodd" d="M43.4371 25.0002C43.4371 19.9089 41.3735 15.2995 38.037 11.9631L25 25.0002H43.4371Z" fill="#97C11F"/>
<path fill-rule="evenodd" clip-rule="evenodd" d="M38.037 38.0372C41.6371 34.4372 43.4371 29.7187 43.4371 25.0002H25L38.037 38.0372Z" fill="#8BB31E"/>
<path fill-rule="evenodd" clip-rule="evenodd" d="M25 43.4372C30.0912 43.4372 34.7006 41.3737 38.037 38.0372L25 25.0002V43.4372Z" fill="#80A51A"/>
</svg>
