<svg width="260" height="260" viewBox="0 0 260 260" fill="none" xmlns="http://www.w3.org/2000/svg">
<circle cx="129.5" cy="157.315" r="102.5" fill="#F6F6F6"/>
<circle cx="229.5" cy="219.315" r="2.5" fill="#96C11F"/>
<circle cx="234.5" cy="66.3151" r="2.5" fill="#96C11F"/>
<circle cx="175.5" cy="42.3151" r="2.5" fill="#96C11F"/>
<circle cx="4.5" cy="190.175" r="2.5" fill="#96C11F"/>
<ellipse cx="92.1111" cy="15.9075" rx="5" ry="4.90753" fill="#FFD949"/>
<ellipse cx="252.944" cy="137.303" rx="5" ry="4.90747" fill="#FFD949"/>
<ellipse cx="42" cy="227.037" rx="5" ry="4.90753" fill="#FFD949"/>
<path d="M111.978 116.704L97.1111 131.571V198.926H162.889V116.704H111.978Z" fill="#96C11F"/>
<path d="M162.889 116.704H129.836V198.926H162.889V116.704Z" fill="#749811"/>
<path d="M111.978 131.571V116.704L97.1111 131.571H111.978Z" fill="#749811"/>
<path d="M154.667 140.623H105.333V142.118H154.667V140.623Z" fill="white"/>
<path d="M154.667 148.845H105.333V150.34H154.667V148.845Z" fill="white"/>
<path d="M154.667 157.067H105.333V158.562H154.667V157.067Z" fill="white"/>
<path d="M154.667 165.29H105.333V166.785H154.667V165.29Z" fill="white"/>
<path d="M154.667 173.512H105.333V175.007H154.667V173.512Z" fill="white"/>
<path d="M135.543 186.136C133.844 186.355 133.041 185.643 132.039 184.376C131.831 184.114 131.648 183.809 131.361 183.628C130.232 182.916 129.138 183.799 128.15 184.347C127.201 184.874 126.252 185.401 125.303 185.927C124.825 186.193 123.227 187.392 122.724 187.24C122.766 187.253 121.936 183.935 121.683 183.473C121.345 182.852 120.542 183.096 120.317 183.651C120.007 184.415 119.691 185.241 119.236 185.943C118.379 187.262 116.693 188.394 115.001 187.718C114.524 187.527 114.181 187.167 113.95 186.714C114.594 186.175 115.144 185.49 115.529 184.701C116.097 183.538 116.864 181.536 116.335 180.249C115.86 179.095 114.909 179.087 114.063 179.838C112.444 181.275 111.732 183.911 112.254 186.095C111.206 186.703 109.961 186.77 108.811 185.686C108.111 185.027 107.052 186.082 107.754 186.743C109.289 188.189 111.192 188.249 112.798 187.464C113.047 187.898 113.357 188.295 113.747 188.624C116.695 191.112 119.326 188.529 120.863 185.872C120.922 186.463 120.922 187.052 121.079 187.699C121.16 188.035 121.22 188.311 121.471 188.552C122.467 189.507 123.962 188.379 124.837 187.894C125.921 187.292 127.005 186.69 128.09 186.089C129.067 185.547 129.816 184.863 131.092 185.687C131.306 185.826 131.387 186.177 131.591 186.332C132.836 187.283 133.915 187.84 135.541 187.63C136.484 187.509 136.495 186.013 135.543 186.136ZM114.421 181.983C114.695 181.64 114.744 181.067 114.901 181.728C115.008 182.18 114.504 183.286 114.324 183.699C114.137 184.129 113.877 184.551 113.57 184.936C113.562 183.813 113.894 182.645 114.421 181.983Z" fill="white"/>
<path d="M154.668 140.623H129.836V142.118H154.668V140.623Z" fill="white"/>
<path d="M154.668 148.845H129.836V150.34H154.668V148.845Z" fill="white"/>
<path d="M154.668 157.067H129.836V158.562H154.668V157.067Z" fill="white"/>
<path d="M154.668 165.29H129.836V166.785H154.668V165.29Z" fill="white"/>
<path d="M154.668 173.512H129.836V175.007H154.668V173.512Z" fill="white"/>
<path d="M135.543 186.136C133.844 186.355 133.041 185.643 132.039 184.376C131.831 184.114 131.648 183.809 131.361 183.628C130.842 183.301 130.331 183.312 129.834 183.471V185.311C130.206 185.281 130.612 185.377 131.093 185.688C131.308 185.826 131.388 186.177 131.592 186.333C132.837 187.284 133.916 187.841 135.542 187.631C136.484 187.509 136.495 186.013 135.543 186.136Z" fill="white"/>
<path d="M143.89 180.42L136.965 175.988L165.775 130.974C166.999 129.061 169.541 128.503 171.454 129.728C173.367 130.952 173.925 133.494 172.7 135.407L143.89 180.42Z" fill="#F28D01"/>
<path d="M171.454 129.727C171.433 129.714 171.412 129.705 171.391 129.692L140.393 178.183L143.89 180.421L172.7 135.406C173.924 133.494 173.366 130.951 171.454 129.727Z" fill="#EC6608"/>
<path d="M135.995 185.129L143.89 180.42L136.965 175.988L135.995 185.129Z" fill="#F9B54C"/>
<path d="M136.004 185.05L135.995 185.129L143.89 180.42L140.393 178.182L136.004 185.05Z" fill="#F4A200"/>
<circle cx="58" cy="83.8151" r="20" fill="#96C11F"/>
<path d="M60.168 91.8151H57.332V78.1158L53.1484 79.5455V77.1432L59.8047 74.694H60.168V91.8151Z" fill="white"/>
</svg>
