<svg width="260" height="260" viewBox="0 0 260 260" fill="none" xmlns="http://www.w3.org/2000/svg">
<circle cx="132.107" cy="157.106" r="102.107" fill="#F6F6F6"/>
<ellipse cx="212.682" cy="44.9385" rx="2.49042" ry="2.44433" fill="#96C11F"/>
<ellipse cx="49.8084" cy="243.849" rx="2.49042" ry="2.44433" fill="#96C11F"/>
<ellipse cx="234.1" cy="219.129" rx="2.49042" ry="2.44439" fill="#96C11F"/>
<ellipse cx="135.906" cy="31.4902" rx="2.49042" ry="2.44433" fill="#96C11F"/>
<ellipse cx="2.49042" cy="101.598" rx="2.49042" ry="2.44433" fill="#96C11F"/>
<ellipse cx="255.019" cy="108.931" rx="4.98084" ry="4.88867" fill="#FFD949"/>
<ellipse cx="15.9387" cy="165.64" rx="4.98084" ry="4.88873" fill="#FFD949"/>
<circle cx="63.7548" cy="83.7886" r="19.9234" fill="#96C11F"/>
<path d="M69.8373 91.8428H58.3647V89.8857L64.0483 83.6865C64.8686 82.7725 65.4506 82.0107 65.7944 81.4014C66.1459 80.7842 66.3217 80.167 66.3217 79.5498C66.3217 78.7373 66.0913 78.0811 65.6303 77.5811C65.1772 77.0811 64.5639 76.8311 63.7905 76.8311C62.8686 76.8311 62.1538 77.1123 61.6459 77.6748C61.1381 78.2373 60.8842 79.0068 60.8842 79.9834H58.0366C58.0366 78.9443 58.2709 78.0107 58.7397 77.1826C59.2163 76.3467 59.892 75.6982 60.767 75.2373C61.6498 74.7764 62.6655 74.5459 63.8139 74.5459C65.4702 74.5459 66.7748 74.9639 67.728 75.7998C68.6889 76.6279 69.1694 77.7764 69.1694 79.2451C69.1694 80.0967 68.9272 80.9912 68.4428 81.9287C67.9663 82.8584 67.1811 83.917 66.0873 85.1045L61.9155 89.5693H69.8373V91.8428Z" fill="white"/>
<rect x="102" y="137" width="60" height="58" fill="#F1F1F1"/>
<path d="M173.5 135.5L142 104V135.5H173.5Z" fill="#719315"/>
<path d="M153.101 135.273C147.101 135.273 142.219 130.391 142.219 124.391L142 104H102.391C96.3901 104 91.5082 108.882 91.5082 114.883V194.117C91.5082 200.118 96.3901 205 102.391 205H162.609C168.61 205 173.492 200.118 173.492 194.117V135.5L153.101 135.273ZM132.5 192.322C118.635 192.322 107.355 181.042 107.355 167.177C107.355 153.313 118.635 142.033 132.5 142.033C146.365 142.033 157.645 153.313 157.645 167.178C157.645 181.042 146.365 192.322 132.5 192.322Z" fill="#96C11F"/>
<circle cx="132.5" cy="166.375" r="25.875" fill="white"/>
<path d="M132.5 144.259C120.014 144.259 109.857 154.18 109.857 166.375C109.857 178.57 120.014 188.492 132.5 188.492C144.985 188.492 155.143 178.57 155.143 166.375C155.143 154.18 144.985 144.259 132.5 144.259ZM142.882 163.626L132.325 173.938C131.671 174.577 130.785 174.935 129.861 174.935C128.936 174.935 128.05 174.577 127.397 173.938L122.118 168.782C120.757 167.453 120.757 165.298 122.118 163.968C123.479 162.639 125.685 162.639 127.046 163.968L129.861 166.717L137.953 158.813C139.314 157.483 141.521 157.483 142.882 158.813C144.242 160.142 144.242 162.297 142.882 163.626Z" fill="#F28D01"/>
</svg>
