<svg width="260" height="260" viewBox="0 0 260 260" fill="none" xmlns="http://www.w3.org/2000/svg">
<circle cx="129.5" cy="157.5" r="102.5" fill="#F6F6F6"/>
<path d="M130 191.689C104.253 191.689 83.3793 186.378 83.3793 180.931V193.475C83.3936 198.919 104.26 204.241 130 204.241C155.74 204.241 176.606 198.919 176.621 193.475V180.931C176.621 186.378 155.747 191.689 130 191.689Z" fill="#8AA937"/>
<path d="M124.621 171.966C98.8735 171.966 78 166.654 78 161.207V173.752C78.0143 179.195 98.8807 184.517 124.621 184.517C150.361 184.517 171.227 179.195 171.241 173.752V161.207C171.241 166.654 150.368 171.966 124.621 171.966Z" fill="#8AA937"/>
<path d="M135.379 152.241C109.632 152.241 88.7587 146.93 88.7587 141.482V154.027C88.773 159.471 109.639 164.793 135.379 164.793C161.119 164.793 181.986 159.471 182 154.027V141.482C182 146.93 161.127 152.241 135.379 152.241Z" fill="#EC6608"/>
<path d="M171.241 120.199C171.241 125.644 150.368 130.724 124.621 130.724C98.8735 130.724 78 125.644 78 120.199C78 114.751 98.8735 111 124.621 111C150.368 111 171.241 114.751 171.241 120.199Z" fill="#96C11F"/>
<path d="M124.621 130.724C98.8735 130.724 78 125.413 78 119.966V132.51C78.0143 137.954 98.8807 143.276 124.621 143.276C150.361 143.276 171.227 137.954 171.241 132.51V119.966C171.241 125.413 150.368 130.724 124.621 130.724Z" fill="#8AA937"/>
<path d="M85.1724 125.478V138.02C86.2626 138.422 87.4568 138.809 88.7586 139.179V126.634C87.4568 126.265 86.2626 125.877 85.1724 125.478Z" fill="#749811"/>
<path d="M160.483 126.634V139.179C161.785 138.809 162.979 138.422 164.069 138.02V125.478C162.979 125.879 161.785 126.265 160.483 126.634Z" fill="#749811"/>
<path d="M94.1379 127.936V140.482C95.2855 140.72 96.4815 140.946 97.7241 141.16V128.613C96.4815 128.4 95.2855 128.174 94.1379 127.936Z" fill="#749811"/>
<path d="M151.517 128.613V141.161C152.76 140.946 153.956 140.72 155.103 140.482V127.936C153.956 128.174 152.76 128.4 151.517 128.613Z" fill="#749811"/>
<path d="M103.103 129.413V141.961C104.272 142.112 105.465 142.252 106.69 142.377V129.829C105.465 129.704 104.272 129.562 103.103 129.413Z" fill="#749811"/>
<path d="M142.552 129.831V142.379C143.776 142.252 144.969 142.112 146.138 141.963V129.413C144.969 129.565 143.776 129.705 142.552 129.831Z" fill="#749811"/>
<path d="M112.069 130.292V142.842C113.247 142.924 114.441 142.998 115.655 143.057V130.505C114.441 130.446 113.247 130.374 112.069 130.292Z" fill="#749811"/>
<path d="M133.586 130.505V143.057C134.8 142.998 135.994 142.924 137.172 142.842V130.292C135.994 130.374 134.8 130.446 133.586 130.505Z" fill="#749811"/>
<path d="M124.621 130.725C124.02 130.725 123.423 130.719 122.828 130.714V143.266C123.423 143.271 124.02 143.276 124.621 143.276C125.221 143.276 125.819 143.271 126.414 143.266V130.714C125.819 130.719 125.221 130.725 124.621 130.725Z" fill="#749811"/>
<path d="M95.931 146.994V159.537C97.0212 159.939 98.2154 160.326 99.5172 160.695V148.151C98.2154 147.781 97.0212 147.394 95.931 146.994Z" fill="#CE5906"/>
<path d="M171.241 148.151V160.695C172.543 160.326 173.737 159.939 174.828 159.537V146.994C173.737 147.396 172.543 147.781 171.241 148.151Z" fill="#CE5906"/>
<path d="M104.897 149.453V161.999C106.044 162.238 107.24 162.464 108.483 162.677V150.131C107.24 149.918 106.044 149.692 104.897 149.453Z" fill="#CE5906"/>
<path d="M162.276 150.131V162.679C163.519 162.464 164.715 162.238 165.862 161.999V149.453C164.715 149.692 163.519 149.918 162.276 150.131Z" fill="#CE5906"/>
<path d="M113.862 150.933V163.481C115.031 163.631 116.224 163.771 117.448 163.897V151.349C116.224 151.221 115.031 151.081 113.862 150.933Z" fill="#CE5906"/>
<path d="M153.31 151.347V163.897C154.535 163.769 155.727 163.63 156.897 163.481V150.933C155.727 151.083 154.535 151.223 153.31 151.347Z" fill="#CE5906"/>
<path d="M122.828 151.809V164.359C124.006 164.441 125.2 164.515 126.414 164.574V152.022C125.2 151.963 124.006 151.891 122.828 151.809Z" fill="#CE5906"/>
<path d="M144.345 152.022V164.574C145.559 164.515 146.753 164.441 147.931 164.359V151.809C146.753 151.891 145.559 151.963 144.345 152.022Z" fill="#CE5906"/>
<path d="M135.379 152.241C134.779 152.241 134.181 152.236 133.586 152.23V164.782C134.181 164.788 134.779 164.793 135.379 164.793C135.98 164.793 136.577 164.788 137.172 164.782V152.23C136.577 152.236 135.98 152.241 135.379 152.241Z" fill="#CE5906"/>
<path d="M85.1724 166.719V179.262C86.2626 179.663 87.4568 180.049 88.7586 180.42V167.875C87.4568 167.506 86.2626 167.119 85.1724 166.719Z" fill="#749811"/>
<path d="M160.483 167.875V180.42C161.785 180.05 162.979 179.663 164.069 179.262V166.719C162.979 167.12 161.785 167.506 160.483 167.875Z" fill="#749811"/>
<path d="M94.1379 169.177V181.723C95.2855 181.962 96.4815 182.188 97.7241 182.401V169.855C96.4815 169.641 95.2855 169.415 94.1379 169.177Z" fill="#749811"/>
<path d="M151.517 169.855V182.403C152.76 182.188 153.956 181.962 155.103 181.723V169.177C153.956 169.415 152.76 169.641 151.517 169.855Z" fill="#749811"/>
<path d="M103.103 170.656V183.204C104.272 183.355 105.465 183.495 106.69 183.62V171.072C105.465 170.945 104.272 170.805 103.103 170.656Z" fill="#749811"/>
<path d="M142.552 171.07V183.62C143.776 183.493 144.969 183.353 146.138 183.204V170.656C144.969 170.807 143.776 170.947 142.552 171.07Z" fill="#749811"/>
<path d="M112.069 171.533V184.083C113.247 184.166 114.441 184.239 115.655 184.298V171.747C114.441 171.687 113.247 171.616 112.069 171.533Z" fill="#749811"/>
<path d="M133.586 171.747V184.298C134.8 184.239 135.994 184.166 137.172 184.083V171.533C135.994 171.616 134.8 171.687 133.586 171.747Z" fill="#749811"/>
<path d="M124.621 171.966C124.02 171.966 123.423 171.96 122.828 171.955V184.507C123.423 184.512 124.02 184.518 124.621 184.518C125.221 184.518 125.819 184.512 126.414 184.507V171.955C125.819 171.96 125.221 171.966 124.621 171.966Z" fill="#749811"/>
<path d="M90.5518 186.443V198.986C91.642 199.388 92.8362 199.773 94.138 200.144V187.6C92.8362 187.231 91.642 186.843 90.5518 186.443Z" fill="#749811"/>
<path d="M165.862 187.6V200.144C167.164 199.775 168.358 199.388 169.448 198.986V186.443C168.358 186.845 167.164 187.231 165.862 187.6Z" fill="#749811"/>
<path d="M99.5172 188.901V201.448C100.665 201.686 101.861 201.912 103.103 202.126V189.579C101.861 189.366 100.665 189.14 99.5172 188.901Z" fill="#749811"/>
<path d="M156.897 189.579V202.127C158.139 201.912 159.335 201.686 160.483 201.448V188.901C159.335 189.14 158.139 189.366 156.897 189.579Z" fill="#749811"/>
<path d="M108.483 190.381V202.929C109.652 203.08 110.844 203.219 112.069 203.345V190.797C110.844 190.67 109.652 190.53 108.483 190.381Z" fill="#749811"/>
<path d="M147.931 190.795V203.345C149.156 203.218 150.348 203.078 151.517 202.929V190.381C150.348 190.531 149.156 190.671 147.931 190.795Z" fill="#749811"/>
<path d="M117.448 191.258V203.808C118.626 203.89 119.821 203.964 121.034 204.023V191.471C119.821 191.412 118.626 191.34 117.448 191.258Z" fill="#749811"/>
<path d="M138.966 191.471V204.023C140.18 203.964 141.374 203.89 142.552 203.808V191.258C141.374 191.34 140.18 191.412 138.966 191.471Z" fill="#749811"/>
<path d="M130 191.69C129.399 191.69 128.802 191.685 128.207 191.68V204.231C128.802 204.237 129.399 204.242 130 204.242C130.601 204.242 131.198 204.237 131.793 204.231V191.68C131.198 191.685 130.601 191.69 130 191.69Z" fill="#749811"/>
<path d="M169.828 176.219C164.736 180.698 146.43 184.517 124.621 184.517C107.568 184.517 92.6622 182.181 84.534 179.021C83.7863 179.699 83.3793 180.416 83.3793 181.164C83.3793 186.612 104.253 191.69 130 191.69C155.749 191.69 176.621 186.612 176.621 181.164C176.621 179.287 174.137 177.608 169.828 176.219Z" fill="#96C11F"/>
<path d="M135.379 164.793C111.687 164.793 92.1368 160.284 89.1639 155.32C82.2084 156.896 78 158.996 78 161.44C78 166.886 98.8735 171.966 124.621 171.966C150.368 171.966 171.241 166.886 171.241 161.44C171.241 161.2 171.188 160.965 171.107 160.732C162.556 163.138 149.728 164.793 135.379 164.793Z" fill="#96C11F"/>
<path d="M169.436 135.295C163.857 139.634 145.912 143.276 124.621 143.276C110.871 143.276 98.5149 141.755 89.9816 139.511C89.1908 140.21 88.7587 140.945 88.7587 141.716C88.7587 147.163 109.632 152.242 135.379 152.242C161.127 152.242 182 147.163 182 141.716C182 139.112 177.225 136.898 169.436 135.295Z" fill="#F28D01"/>
<ellipse cx="7" cy="177.292" rx="5" ry="4.90753" fill="#FFD949"/>
<ellipse cx="253" cy="118.072" rx="5" ry="4.90753" fill="#FFD949"/>
<ellipse cx="128.483" cy="23.3571" rx="2.5" ry="2.4538" fill="#96C11F"/>
<ellipse cx="199.5" cy="52.5465" rx="2.5" ry="2.45374" fill="#96C11F"/>
<ellipse cx="45.5" cy="239.768" rx="2.5" ry="2.45374" fill="#96C11F"/>
<ellipse cx="229.5" cy="232.001" rx="2.5" ry="2.45374" fill="#96C11F"/>
<circle cx="62" cy="84" r="20" fill="#96C11F"/>
<path d="M59.9297 82.168H61.6641C62.5391 82.1602 63.2305 81.9336 63.7383 81.4883C64.2539 81.043 64.5117 80.3984 64.5117 79.5547C64.5117 78.7422 64.2969 78.1133 63.8672 77.668C63.4453 77.2148 62.7969 76.9883 61.9219 76.9883C61.1562 76.9883 60.5273 77.2109 60.0352 77.6562C59.543 78.0938 59.2969 78.668 59.2969 79.3789H56.4492C56.4492 78.5039 56.6797 77.707 57.1406 76.9883C57.6094 76.2695 58.2578 75.7109 59.0859 75.3125C59.9219 74.9062 60.8555 74.7031 61.8867 74.7031C63.5898 74.7031 64.9258 75.1328 65.8945 75.9922C66.8711 76.8438 67.3594 78.0312 67.3594 79.5547C67.3594 80.3203 67.1133 81.043 66.6211 81.7227C66.1367 82.3945 65.5078 82.9023 64.7344 83.2461C65.6719 83.5664 66.3828 84.0703 66.8672 84.7578C67.3594 85.4453 67.6055 86.2656 67.6055 87.2188C67.6055 88.75 67.0781 89.9688 66.0234 90.875C64.9766 91.7812 63.5977 92.2344 61.8867 92.2344C60.2461 92.2344 58.9023 91.7969 57.8555 90.9219C56.8086 90.0469 56.2852 88.8828 56.2852 87.4297H59.1328C59.1328 88.1797 59.3828 88.7891 59.8828 89.2578C60.3906 89.7266 61.0703 89.9609 61.9219 89.9609C62.8047 89.9609 63.5 89.7266 64.0078 89.2578C64.5156 88.7891 64.7695 88.1094 64.7695 87.2188C64.7695 86.3203 64.5039 85.6289 63.9727 85.1445C63.4414 84.6602 62.6523 84.418 61.6055 84.418H59.9297V82.168Z" fill="white"/>
</svg>
