<svg width="260" height="260" viewBox="0 0 260 260" fill="none" xmlns="http://www.w3.org/2000/svg">
<circle cx="129.5" cy="157.315" r="102.5" fill="#F6F6F6"/>
<circle cx="229.5" cy="219.315" r="2.5" fill="#96C11F"/>
<circle cx="234.5" cy="66.3154" r="2.5" fill="#96C11F"/>
<circle cx="175.5" cy="42.3154" r="2.5" fill="#96C11F"/>
<circle cx="4.5" cy="190.175" r="2.5" fill="#96C11F"/>
<ellipse cx="92.1111" cy="15.9075" rx="5" ry="4.90753" fill="#FFD949"/>
<ellipse cx="252.944" cy="137.303" rx="5" ry="4.90747" fill="#FFD949"/>
<ellipse cx="42" cy="227.037" rx="5" ry="4.90753" fill="#FFD949"/>
<path d="M175 119.914V169.719L169.141 175.578H81.3869L75 169.719V119.914C75 115.051 78.9256 111.125 83.7891 111.125H166.211C171.074 111.125 175 115.051 175 119.914Z" fill="#96C11F"/>
<path d="M175 119.914V169.719L169.141 175.578H125V111.125H166.211C171.074 111.125 175 115.051 175 119.914Z" fill="#749811"/>
<path d="M145.527 201.008H104.473L110.332 183.429C110.684 182.258 111.797 181.438 113.086 181.438H136.914C138.203 181.438 139.316 182.258 139.668 183.429L145.527 201.008Z" fill="#6D8E11"/>
<path d="M139.668 183.429L145.527 201.008H125V181.438H136.914C138.203 181.438 139.316 182.258 139.668 183.429Z" fill="#62800E"/>
<path d="M175 169.719V178.508C175 183.371 171.074 187.297 166.211 187.297H83.7891C78.9256 187.297 75 183.371 75 178.508V169.719H175Z" fill="#8EB71E"/>
<path d="M175 169.719V178.508C175 183.371 171.074 187.297 166.211 187.297H125V169.719H175Z" fill="#749811"/>
<path d="M157.422 201.945C157.422 203.586 156.133 204.875 154.492 204.875H95.5078C93.867 204.875 92.5781 203.586 92.5781 201.945C92.5781 200.304 93.867 199.016 95.5078 199.016H154.492C156.133 199.016 157.422 200.304 157.422 201.945Z" fill="#56710C"/>
<path d="M157.422 201.945C157.422 203.586 156.133 204.875 154.492 204.875H125V199.016H154.492C156.133 199.016 157.422 200.304 157.422 201.945Z" fill="#56710C"/>
<path d="M169 120.2V176C169 178.761 166.761 181 164 181H86C83.2386 181 81 178.761 81 176V120.2C81 118.408 82.2848 117 83.9204 117H166.08C167.715 117 169 118.408 169 120.2Z" fill="#F1F1F1"/>
<path d="M169 120.2V176C169 178.761 166.761 181 164 181H130C127.239 181 125 178.761 125 176V122C125 119.239 127.239 117 130 117H166.08C167.715 117 169 118.408 169 120.2Z" fill="#EDEDED"/>
<path d="M189.016 158.578V187.875L183.156 193.734H153.859L148 187.875V158.578L153.859 152.719H183.156L189.016 158.578Z" fill="#F28D01"/>
<path d="M189.016 158.578V187.875L183.156 193.734H168.508V152.719H183.156L189.016 158.578Z" fill="#EC6608"/>
<path d="M183.156 152.719H168.508V193.734H183.156V152.719Z" fill="#E2E2E7"/>
<path d="M189.016 187.875V196.664C189.016 201.527 185.09 205.453 180.227 205.453H156.789C151.926 205.453 148 201.527 148 196.664V187.875H189.016Z" fill="#F28D01"/>
<path d="M168.508 187.875H189.016V196.664C189.016 201.527 185.09 205.453 180.227 205.453H168.508V187.875Z" fill="#EC6608"/>
<path d="M189.016 149.789V158.578H148V149.789C148 144.926 151.926 141 156.789 141H180.227C185.09 141 189.016 144.926 189.016 149.789Z" fill="#F28D01"/>
<path d="M189.016 149.789V158.578H168.508V141H180.227C185.09 141 189.016 144.926 189.016 149.789Z" fill="#EC6608"/>
<path d="M180 146H158C155.239 146 153 148.239 153 151V196C153 198.761 155.239 201 158 201H180C182.761 201 185 198.761 185 196V151C185 148.239 182.761 146 180 146Z" fill="#EDEDED"/>
<circle cx="58" cy="83.8154" r="20" fill="#96C11F"/>
<path d="M60.168 91.8154H57.332V78.1162L53.1484 79.5459V77.1436L59.8047 74.6943H60.168V91.8154Z" fill="white"/>
</svg>
