<svg width="260" height="260" viewBox="0 0 260 260" fill="none" xmlns="http://www.w3.org/2000/svg">
<circle cx="131.992" cy="157.008" r="102.107" fill="#F6F6F6"/>
<ellipse cx="212.682" cy="44.9389" rx="2.49042" ry="2.44433" fill="#96C11F"/>
<ellipse cx="49.8084" cy="243.849" rx="2.49042" ry="2.44433" fill="#96C11F"/>
<ellipse cx="234.1" cy="219.13" rx="2.49042" ry="2.44439" fill="#96C11F"/>
<ellipse cx="135.906" cy="31.4906" rx="2.49042" ry="2.44433" fill="#96C11F"/>
<ellipse cx="2.49042" cy="101.598" rx="2.49042" ry="2.44433" fill="#96C11F"/>
<ellipse cx="255.019" cy="108.931" rx="4.98084" ry="4.88867" fill="#FFD949"/>
<ellipse cx="15.9387" cy="165.64" rx="4.98084" ry="4.88873" fill="#FFD949"/>
<g clip-path="url(#clip0)">
<path d="M177.678 145.585C177.559 145.896 177.424 146.201 177.273 146.498C176.607 147.808 176.877 149.399 177.939 150.415C179.642 152 180.598 154.231 180.573 156.558C180.556 158.896 179.575 161.124 177.862 162.714C176.793 163.73 176.507 165.322 177.158 166.645C178.203 168.731 178.334 171.155 177.522 173.341C176.7 175.54 175.015 177.308 172.857 178.232C171.5 178.817 170.677 180.212 170.821 181.683C171.094 184.004 170.389 186.335 168.876 188.117C167.357 189.918 165.168 191.02 162.817 191.167C161.343 191.276 160.101 192.313 159.733 193.746C159.173 196.015 157.713 197.959 155.688 199.128C153.664 200.297 151.25 200.59 149.004 199.94C147.58 199.543 146.061 200.099 145.229 201.322C143.926 203.284 141.877 204.629 139.558 205.044C137.258 205.463 134.887 204.908 133.013 203.511C131.811 202.651 130.192 202.666 129.007 203.549C127.128 204.955 124.754 205.531 122.439 205.143C120.14 204.754 118.106 203.428 116.822 201.48C116.002 200.255 114.48 199.706 113.066 200.125C110.832 200.813 108.412 200.549 106.379 199.394C104.351 198.252 102.897 196.309 102.376 194.041C102.021 192.614 100.773 191.588 99.3036 191.517C98.9708 191.499 98.6393 191.464 98.31 191.411L177.678 145.585Z" fill="#96C11F"/>
<path d="M164.2 122.24L84.8328 168.064C84.9514 167.752 85.085 167.447 85.235 167.15C85.9013 165.84 85.6314 164.249 84.5694 163.233C82.8657 161.648 81.9097 159.417 81.9362 157.09C81.9519 154.752 82.9328 152.524 84.646 150.934C85.7157 149.918 86.001 148.326 85.3504 147.003C84.3083 144.918 84.1787 142.493 84.9931 140.309C85.8148 138.109 87.5003 136.342 89.6578 135.418C91.0158 134.834 91.8399 133.439 91.6966 131.968C91.4246 129.646 92.1288 127.316 93.6426 125.534C95.1607 123.733 97.3498 122.631 99.7007 122.483C101.173 122.372 102.411 121.333 102.779 119.903C103.339 117.634 104.799 115.69 106.824 114.521C108.848 113.352 111.261 113.059 113.507 113.709C114.936 114.111 116.462 113.552 117.293 112.323C118.598 110.364 120.646 109.023 122.963 108.61C125.263 108.189 127.633 108.742 129.509 110.137C130.71 110.997 132.33 110.982 133.515 110.1C135.394 108.692 137.768 108.114 140.084 108.502C142.383 108.891 144.418 110.217 145.7 112.165C146.522 113.39 148.043 113.939 149.457 113.52C151.692 112.832 154.111 113.096 156.144 114.252C158.172 115.392 159.626 117.335 160.148 119.604C160.499 121.029 161.742 122.056 163.208 122.132C163.54 122.15 163.872 122.187 164.2 122.24Z" fill="#96C11F"/>
<path d="M108.085 185.765C120.009 195.304 136.562 196.556 149.787 188.921C163.011 181.286 170.203 166.324 167.905 151.228L108.085 185.765Z" fill="#749811"/>
<path d="M94.6066 162.421C92.3086 147.324 99.5 132.362 112.725 124.727C125.949 117.093 142.502 118.345 154.426 127.884L94.6066 162.421Z" fill="#749811"/>
<path d="M101.013 158.723C100.278 147.233 106.122 136.319 116.093 130.562C126.065 124.805 138.438 125.201 148.022 131.583L101.013 158.723Z" fill="#E4E4E4"/>
<path d="M114.49 182.066C124.073 188.448 136.447 188.844 146.418 183.086C156.39 177.33 162.234 166.416 161.498 154.925L114.49 182.066Z" fill="#E4E4E4"/>
<path d="M92.8396 187.181C91.7068 187.835 90.5422 188.182 89.3456 188.222C88.1595 188.255 87.0606 187.996 86.049 187.444C85.0418 186.875 84.2292 186.056 83.6112 184.985C82.9932 183.915 82.6928 182.807 82.71 181.66C82.7316 180.498 83.0535 179.411 83.6756 178.401C84.3082 177.384 85.1908 176.549 86.3236 175.895C87.4563 175.241 88.6158 174.897 89.8019 174.864C90.988 174.83 92.0899 175.095 93.1075 175.657C94.1191 176.21 94.9339 177.021 95.5519 178.091C96.1699 179.162 96.4681 180.278 96.4465 181.441C96.4189 182.593 96.094 183.674 95.4719 184.685C94.8498 185.695 93.9723 186.527 92.8396 187.181ZM91.5976 185.03C92.2419 184.658 92.7399 184.177 93.0915 183.586C93.4371 182.984 93.6024 182.334 93.5874 181.636C93.5827 180.932 93.3854 180.243 92.9954 179.567C92.6054 178.892 92.1067 178.376 91.4994 178.02C90.9024 177.658 90.2601 177.481 89.5725 177.49C88.8789 177.489 88.2099 177.674 87.5656 178.046C86.9212 178.418 86.4263 178.905 86.0807 179.506C85.729 180.097 85.5555 180.745 85.5602 181.449C85.5752 182.147 85.7777 182.834 86.1677 183.509C86.5577 184.185 87.0512 184.703 87.6482 185.065C88.2555 185.421 88.906 185.6 89.5997 185.602C90.2873 185.593 90.9532 185.402 91.5976 185.03ZM110.41 174.044L112.903 178.362L110.564 179.712L109.259 177.452L101.559 181.898L102.864 184.158L100.525 185.508L98.0481 181.181L98.4846 180.929C99.1273 180.53 99.3137 179.785 99.0439 178.694C98.7741 177.603 98.1694 176.171 97.2298 174.4L95.3835 170.914L103.77 166.072L108.882 174.926L110.41 174.044ZM99.5939 173.347C100.292 174.676 100.813 175.83 101.157 176.809C101.494 177.778 101.612 178.569 101.509 179.183L106.388 176.366L102.464 169.57L98.7227 171.73L99.5939 173.347ZM118.612 172.301C117.48 172.955 116.315 173.302 115.118 173.342C113.932 173.375 112.833 173.116 111.822 172.564C110.815 171.995 110.002 171.176 109.384 170.105C108.766 169.035 108.466 167.927 108.483 166.78C108.504 165.618 108.826 164.531 109.448 163.521C110.081 162.505 110.964 161.669 112.096 161.015C113.229 160.361 114.388 160.018 115.575 159.984C116.761 159.95 117.863 160.215 118.88 160.777C119.892 161.33 120.707 162.141 121.325 163.211C121.943 164.282 122.241 165.398 122.219 166.561C122.192 167.713 121.867 168.794 121.245 169.805C120.622 170.815 119.745 171.647 118.612 172.301ZM117.37 170.15C118.015 169.778 118.513 169.297 118.864 168.706C119.21 168.104 119.375 167.455 119.36 166.757C119.355 166.053 119.158 165.363 118.768 164.687C118.378 164.012 117.879 163.496 117.272 163.14C116.675 162.778 116.033 162.602 115.345 162.611C114.652 162.609 113.983 162.795 113.338 163.167C112.694 163.539 112.199 164.025 111.853 164.627C111.502 165.218 111.328 165.865 111.333 166.569C111.348 167.267 111.55 167.954 111.94 168.629C112.33 169.305 112.824 169.824 113.421 170.186C114.028 170.542 114.679 170.72 115.372 170.722C116.06 170.713 116.726 170.522 117.37 170.15ZM120.12 156.632L128.928 151.547L130.089 153.558L123.791 157.194L125.087 159.439L128.111 157.693C129.431 156.931 130.593 156.627 131.597 156.782C132.611 156.931 133.418 157.525 134.018 158.564C134.648 159.655 134.752 160.724 134.331 161.771C133.91 162.818 132.998 163.746 131.595 164.556L126.42 167.544L120.12 156.632ZM130.375 162.767C131.019 162.395 131.441 161.985 131.64 161.537C131.833 161.08 131.788 160.606 131.506 160.118C130.954 159.162 130.013 159.068 128.683 159.836L126.158 161.294L127.85 164.225L130.375 162.767ZM136.352 147.261C137.318 146.703 138.248 146.381 139.141 146.295C140.044 146.203 140.859 146.342 141.585 146.713C142.312 147.083 142.909 147.674 143.377 148.484C143.839 149.284 144.052 150.097 144.015 150.922C143.973 151.736 143.686 152.511 143.155 153.247C142.628 153.967 141.881 154.606 140.915 155.164L138.717 156.433L140.454 159.442L137.929 160.9L131.629 149.988L136.352 147.261ZM139.587 153.187C140.345 152.749 140.829 152.255 141.038 151.705C141.241 151.145 141.168 150.563 140.82 149.96C140.466 149.347 139.999 148.993 139.418 148.899C138.831 148.795 138.158 148.961 137.4 149.399L135.342 150.587L137.529 154.375L139.587 153.187ZM156.336 147.57L157.506 149.597L149.057 154.475L142.757 143.563L151.003 138.802L152.173 140.828L146.437 144.14L147.805 146.51L152.871 143.585L154.005 145.549L148.939 148.474L150.397 150.999L156.336 147.57ZM163.253 131.729L169.553 142.641L167.028 144.099L164.445 139.625L159.488 142.487L162.071 146.961L159.546 148.419L153.246 137.507L155.771 136.049L158.255 140.352L163.212 137.49L160.728 133.187L163.253 131.729ZM177.602 138.244C176.469 138.898 175.304 139.245 174.108 139.284C172.922 139.318 171.823 139.058 170.811 138.506C169.804 137.938 168.991 137.118 168.373 136.048C167.755 134.977 167.455 133.869 167.472 132.723C167.494 131.56 167.816 130.474 168.438 129.463C169.07 128.447 169.953 127.612 171.086 126.958C172.219 126.304 173.378 125.96 174.564 125.926C175.75 125.893 176.852 126.157 177.87 126.72C178.881 127.272 179.696 128.083 180.314 129.154C180.932 130.224 181.23 131.341 181.209 132.503C181.181 133.655 180.856 134.737 180.234 135.747C179.612 136.758 178.735 137.59 177.602 138.244ZM176.36 136.093C177.004 135.721 177.502 135.239 177.854 134.648C178.199 134.047 178.365 133.397 178.35 132.699C178.345 131.995 178.148 131.305 177.758 130.63C177.368 129.954 176.869 129.438 176.262 129.082C175.665 128.72 175.022 128.544 174.335 128.553C173.641 128.552 172.972 128.737 172.328 129.109C171.683 129.481 171.189 129.968 170.843 130.569C170.491 131.16 170.318 131.807 170.322 132.511C170.337 133.209 170.54 133.896 170.93 134.572C171.32 135.247 171.813 135.766 172.41 136.128C173.018 136.484 173.668 136.663 174.362 136.664C175.05 136.655 175.715 136.465 176.36 136.093Z" fill="#EC6608"/>
</g>
<circle cx="63.7548" cy="83.7894" r="19.9234" fill="#96C11F"/>
<path d="M69.8373 91.8431H58.3647V89.8861L64.0483 83.6868C64.8686 82.7728 65.4506 82.0111 65.7944 81.4017C66.1459 80.7845 66.3217 80.1673 66.3217 79.5501C66.3217 78.7376 66.0913 78.0814 65.6303 77.5814C65.1772 77.0814 64.5639 76.8314 63.7905 76.8314C62.8686 76.8314 62.1538 77.1126 61.6459 77.6751C61.1381 78.2376 60.8842 79.0072 60.8842 79.9837H58.0366C58.0366 78.9447 58.2709 78.0111 58.7397 77.1829C59.2163 76.347 59.892 75.6986 60.767 75.2376C61.6498 74.7767 62.6655 74.5462 63.8139 74.5462C65.4702 74.5462 66.7748 74.9642 67.728 75.8001C68.6889 76.6283 69.1694 77.7767 69.1694 79.2454C69.1694 80.097 68.9272 80.9915 68.4428 81.929C67.9663 82.8587 67.1811 83.9173 66.0873 85.1048L61.9155 89.5697H69.8373V91.8431Z" fill="white"/>
<defs>
<clipPath id="clip0">
<rect width="97.6245" height="97.6245" fill="white" transform="translate(96.6283 96.7396) rotate(15)"/>
</clipPath>
</defs>
</svg>
