<svg width="260" height="260" viewBox="0 0 260 260" fill="none" xmlns="http://www.w3.org/2000/svg">
<circle cx="129.5" cy="157.5" r="102.5" fill="#F6F6F6"/>
<path d="M130 186.828C108.214 186.828 90.5517 182.333 90.5517 177.724V188.339C90.5639 192.945 108.22 197.448 130 197.448C151.78 197.448 169.436 192.945 169.448 188.339V177.724C169.448 182.333 151.786 186.828 130 186.828Z" fill="#8AA937"/>
<path d="M125.448 170.138C103.662 170.138 86 165.644 86 161.035V171.649C86.0121 176.255 103.668 180.759 125.448 180.759C147.228 180.759 164.884 176.255 164.897 171.649V161.035C164.897 165.644 147.234 170.138 125.448 170.138Z" fill="#8AA937"/>
<path d="M134.552 153.448C112.766 153.448 95.1035 148.954 95.1035 144.345V154.959C95.1156 159.566 112.772 164.069 134.552 164.069C156.332 164.069 173.988 159.566 174 154.959V144.345C174 148.954 156.338 153.448 134.552 153.448Z" fill="#EC6608"/>
<path d="M164.897 126.335C164.897 130.943 147.234 135.241 125.448 135.241C103.662 135.241 86 130.943 86 126.335C86 121.726 103.662 118.552 125.448 118.552C147.234 118.552 164.897 121.726 164.897 126.335Z" fill="#96C11F"/>
<path d="M125.448 135.241C103.662 135.241 86 130.747 86 126.138V136.753C86.0121 141.359 103.668 145.862 125.448 145.862C147.228 145.862 164.884 141.359 164.897 136.753V126.138C164.897 130.747 147.234 135.241 125.448 135.241Z" fill="#8AA937"/>
<path d="M92.069 130.802V141.415C92.9915 141.755 94.0019 142.083 95.1035 142.395V131.781C94.0019 131.468 92.9915 131.14 92.069 130.802Z" fill="#749811"/>
<path d="M155.793 131.781V142.395C156.895 142.083 157.905 141.755 158.828 141.415V130.802C157.905 131.142 156.895 131.468 155.793 131.781Z" fill="#749811"/>
<path d="M99.6552 132.882V143.498C100.626 143.7 101.638 143.891 102.69 144.072V133.456C101.638 133.275 100.626 133.084 99.6552 132.882Z" fill="#749811"/>
<path d="M148.207 133.456V144.073C149.258 143.891 150.27 143.7 151.241 143.498V132.882C150.27 133.084 149.258 133.275 148.207 133.456Z" fill="#749811"/>
<path d="M107.241 134.132V144.75C108.231 144.877 109.24 144.996 110.276 145.102V134.484C109.24 134.378 108.231 134.258 107.241 134.132Z" fill="#749811"/>
<path d="M140.621 134.486V145.104C141.657 144.996 142.666 144.877 143.655 144.752V134.132C142.666 134.261 141.657 134.38 140.621 134.486Z" fill="#749811"/>
<path d="M114.828 134.876V145.495C115.824 145.565 116.835 145.627 117.862 145.677V135.056C116.835 135.006 115.824 134.945 114.828 134.876Z" fill="#749811"/>
<path d="M133.034 135.056V145.677C134.062 145.627 135.072 145.565 136.069 145.495V134.876C135.072 134.945 134.062 135.006 133.034 135.056Z" fill="#749811"/>
<path d="M125.448 135.241C124.94 135.241 124.435 135.237 123.931 135.232V145.853C124.435 145.858 124.94 145.862 125.448 145.862C125.957 145.862 126.462 145.858 126.966 145.853V135.232C126.462 135.237 125.957 135.241 125.448 135.241Z" fill="#749811"/>
<path d="M101.172 149.009V159.622C102.095 159.962 103.105 160.29 104.207 160.602V149.988C103.105 149.675 102.095 149.347 101.172 149.009Z" fill="#CE5906"/>
<path d="M164.897 149.988V160.602C165.998 160.29 167.009 159.962 167.931 159.622V149.009C167.009 149.349 165.998 149.675 164.897 149.988Z" fill="#CE5906"/>
<path d="M108.759 151.089V161.705C109.73 161.907 110.742 162.098 111.793 162.279V151.662C110.742 151.482 109.73 151.291 108.759 151.089Z" fill="#CE5906"/>
<path d="M157.31 151.662V162.28C158.362 162.098 159.374 161.907 160.345 161.705V151.089C159.374 151.291 158.362 151.482 157.31 151.662Z" fill="#CE5906"/>
<path d="M116.345 152.341V162.958C117.334 163.086 118.343 163.204 119.379 163.31V152.693C118.343 152.585 117.334 152.467 116.345 152.341Z" fill="#CE5906"/>
<path d="M149.724 152.691V163.31C150.76 163.203 151.769 163.084 152.759 162.958V152.341C151.769 152.468 150.76 152.586 149.724 152.691Z" fill="#CE5906"/>
<path d="M123.931 153.082V163.702C124.928 163.771 125.938 163.834 126.966 163.884V153.263C125.938 153.213 124.928 153.152 123.931 153.082Z" fill="#CE5906"/>
<path d="M142.138 153.263V163.884C143.165 163.834 144.176 163.771 145.172 163.702V153.082C144.176 153.152 143.165 153.213 142.138 153.263Z" fill="#CE5906"/>
<path d="M134.552 153.448C134.043 153.448 133.538 153.444 133.034 153.439V164.06C133.538 164.064 134.043 164.069 134.552 164.069C135.06 164.069 135.565 164.064 136.069 164.06V153.439C135.565 153.444 135.06 153.448 134.552 153.448Z" fill="#CE5906"/>
<path d="M92.069 165.699V176.312C92.9915 176.652 94.0019 176.978 95.1035 177.292V166.677C94.0019 166.365 92.9915 166.037 92.069 165.699Z" fill="#749811"/>
<path d="M155.793 166.677V177.292C156.895 176.979 157.905 176.652 158.828 176.312V165.699C157.905 166.039 156.895 166.365 155.793 166.677Z" fill="#749811"/>
<path d="M99.6552 167.779V178.395C100.626 178.596 101.638 178.788 102.69 178.968V168.352C101.638 168.172 100.626 167.98 99.6552 167.779Z" fill="#749811"/>
<path d="M148.207 168.352V178.97C149.258 178.788 150.27 178.596 151.241 178.395V167.779C150.27 167.98 149.258 168.172 148.207 168.352Z" fill="#749811"/>
<path d="M107.241 169.03V179.648C108.231 179.775 109.24 179.894 110.276 180V169.382C109.24 169.275 108.231 169.156 107.241 169.03Z" fill="#749811"/>
<path d="M140.621 169.381V180C141.657 179.892 142.666 179.774 143.655 179.648V169.03C142.666 169.158 141.657 169.276 140.621 169.381Z" fill="#749811"/>
<path d="M114.828 169.772V180.391C115.824 180.461 116.835 180.523 117.862 180.573V169.953C116.835 169.903 115.824 169.842 114.828 169.772Z" fill="#749811"/>
<path d="M133.034 169.953V180.573C134.062 180.523 135.072 180.461 136.069 180.391V169.772C135.072 169.842 134.062 169.903 133.034 169.953Z" fill="#749811"/>
<path d="M125.448 170.138C124.94 170.138 124.435 170.133 123.931 170.129V180.75C124.435 180.754 124.94 180.759 125.448 180.759C125.957 180.759 126.462 180.754 126.966 180.75V170.129C126.462 170.133 125.957 170.138 125.448 170.138Z" fill="#749811"/>
<path d="M96.6207 182.388V193.001C97.5432 193.341 98.5537 193.667 99.6552 193.982V183.367C98.5537 183.054 97.5432 182.727 96.6207 182.388Z" fill="#749811"/>
<path d="M160.345 183.367V193.982C161.446 193.669 162.457 193.341 163.379 193.001V182.388C162.457 182.728 161.446 183.054 160.345 183.367Z" fill="#749811"/>
<path d="M104.207 184.468V195.084C105.178 195.286 106.19 195.477 107.241 195.658V185.042C106.19 184.861 105.178 184.67 104.207 184.468Z" fill="#749811"/>
<path d="M152.759 185.042V195.659C153.81 195.477 154.822 195.286 155.793 195.084V184.468C154.822 184.67 153.81 184.861 152.759 185.042Z" fill="#749811"/>
<path d="M111.793 185.72V196.338C112.782 196.465 113.791 196.583 114.828 196.69V186.072C113.791 185.964 112.782 185.846 111.793 185.72Z" fill="#749811"/>
<path d="M145.172 186.071V196.69C146.209 196.582 147.218 196.464 148.207 196.338V185.72C147.218 185.847 146.209 185.966 145.172 186.071Z" fill="#749811"/>
<path d="M119.379 186.462V197.081C120.376 197.151 121.387 197.213 122.414 197.263V186.642C121.387 186.592 120.376 186.532 119.379 186.462Z" fill="#749811"/>
<path d="M137.586 186.642V197.263C138.613 197.213 139.624 197.151 140.621 197.081V186.462C139.624 186.532 138.613 186.592 137.586 186.642Z" fill="#749811"/>
<path d="M130 186.828C129.492 186.828 128.986 186.823 128.483 186.819V197.439C128.986 197.444 129.492 197.448 130 197.448C130.508 197.448 131.014 197.444 131.517 197.439V186.819C131.014 186.823 130.508 186.828 130 186.828Z" fill="#749811"/>
<path d="M163.701 173.737C159.392 177.527 143.902 180.759 125.448 180.759C111.019 180.759 98.4065 178.782 91.5288 176.108C90.8961 176.682 90.5517 177.289 90.5517 177.921C90.5517 182.531 108.214 186.828 130 186.828C151.788 186.828 169.448 182.531 169.448 177.921C169.448 176.333 167.347 174.913 163.701 173.737Z" fill="#96C11F"/>
<path d="M134.552 164.069C114.504 164.069 97.9619 160.253 95.4463 156.053C89.561 157.387 86 159.164 86 161.232C86 165.839 103.662 170.138 125.448 170.138C147.234 170.138 164.897 165.839 164.897 161.232C164.897 161.028 164.851 160.83 164.783 160.632C157.547 162.668 146.693 164.069 134.552 164.069Z" fill="#96C11F"/>
<path d="M163.369 139.109C158.649 142.78 143.464 145.862 125.448 145.862C113.814 145.862 103.359 144.575 96.1382 142.676C95.4691 143.267 95.1035 143.89 95.1035 144.542C95.1035 149.151 112.766 153.448 134.552 153.448C156.338 153.448 174 149.151 174 144.542C174 142.339 169.96 140.465 163.369 139.109Z" fill="#F28D01"/>
<ellipse cx="7" cy="177.292" rx="5" ry="4.90753" fill="#FFD949"/>
<ellipse cx="253" cy="118.072" rx="5" ry="4.90753" fill="#FFD949"/>
<ellipse cx="128.483" cy="23.3569" rx="2.5" ry="2.4538" fill="#96C11F"/>
<ellipse cx="199.5" cy="52.5463" rx="2.5" ry="2.45374" fill="#96C11F"/>
<ellipse cx="45.5" cy="239.768" rx="2.5" ry="2.45374" fill="#96C11F"/>
<ellipse cx="229.5" cy="232" rx="2.5" ry="2.45374" fill="#96C11F"/>
<circle cx="62" cy="84" r="20" fill="#96C11F"/>
<path d="M59.9297 82.168H61.6641C62.5391 82.1602 63.2305 81.9336 63.7383 81.4883C64.2539 81.043 64.5117 80.3984 64.5117 79.5547C64.5117 78.7422 64.2969 78.1133 63.8672 77.668C63.4453 77.2148 62.7969 76.9883 61.9219 76.9883C61.1562 76.9883 60.5273 77.2109 60.0352 77.6562C59.543 78.0938 59.2969 78.668 59.2969 79.3789H56.4492C56.4492 78.5039 56.6797 77.707 57.1406 76.9883C57.6094 76.2695 58.2578 75.7109 59.0859 75.3125C59.9219 74.9062 60.8555 74.7031 61.8867 74.7031C63.5898 74.7031 64.9258 75.1328 65.8945 75.9922C66.8711 76.8438 67.3594 78.0312 67.3594 79.5547C67.3594 80.3203 67.1133 81.043 66.6211 81.7227C66.1367 82.3945 65.5078 82.9023 64.7344 83.2461C65.6719 83.5664 66.3828 84.0703 66.8672 84.7578C67.3594 85.4453 67.6055 86.2656 67.6055 87.2188C67.6055 88.75 67.0781 89.9688 66.0234 90.875C64.9766 91.7812 63.5977 92.2344 61.8867 92.2344C60.2461 92.2344 58.9023 91.7969 57.8555 90.9219C56.8086 90.0469 56.2852 88.8828 56.2852 87.4297H59.1328C59.1328 88.1797 59.3828 88.7891 59.8828 89.2578C60.3906 89.7266 61.0703 89.9609 61.9219 89.9609C62.8047 89.9609 63.5 89.7266 64.0078 89.2578C64.5156 88.7891 64.7695 88.1094 64.7695 87.2188C64.7695 86.3203 64.5039 85.6289 63.9727 85.1445C63.4414 84.6602 62.6523 84.418 61.6055 84.418H59.9297V82.168Z" fill="white"/>
</svg>
