<svg width="24" height="25" viewBox="0 0 24 25" fill="none" xmlns="http://www.w3.org/2000/svg">
<path d="M12 0.466309C5.38323 0.466309 0 5.84954 0 12.4663C0 19.0826 5.38323 24.4663 12 24.4663C18.6163 24.4663 24 19.0826 24 12.4663C24 5.84954 18.6173 0.466309 12 0.466309ZM14.9843 12.8888H13.032C13.032 16.0079 13.032 19.8473 13.032 19.8473H10.139C10.139 19.8473 10.139 16.0451 10.139 12.8888H8.76388V10.4294H10.139V8.83866C10.139 7.69937 10.6804 5.91914 13.0586 5.91914L15.2023 5.92736V8.31469C15.2023 8.31469 13.8996 8.31469 13.6463 8.31469C13.3931 8.31469 13.0329 8.44133 13.0329 8.98464V10.4299H15.2371L14.9843 12.8888Z" fill="white"/>
</svg>
