<svg width="24" height="25" viewBox="0 0 24 25" fill="none" xmlns="http://www.w3.org/2000/svg">
<path d="M12.0113 10.4117C13.1572 10.4075 14.0698 9.48706 14.0656 8.33875C14.0614 7.18996 13.1468 6.27589 12.0005 6.2749C10.8446 6.27368 9.9214 7.20469 9.93024 8.3638C9.93883 9.50792 10.8618 10.4159 12.0113 10.4117Z" fill="white"/>
<path d="M12 0.466309C5.37256 0.466309 0 5.83912 0 12.4663C0 19.0935 5.37256 24.4663 12 24.4663C18.6274 24.4663 24 19.0935 24 12.4663C24 5.83912 18.6274 0.466309 12 0.466309ZM12.0172 4.11554C14.3546 4.12192 16.2306 6.03382 16.2186 8.39699C16.2068 10.7057 14.3001 12.5768 11.9666 12.5689C9.65696 12.5611 7.76274 10.6462 7.77649 8.33291C7.7895 5.99429 9.68471 4.10915 12.0172 4.11554ZM16.7514 14.2297C16.2346 14.7602 15.6124 15.1442 14.9215 15.4121C14.2684 15.6652 13.5527 15.7927 12.8441 15.8776C12.9514 15.994 13.0017 16.0512 13.0685 16.118C14.03 17.0846 14.9961 18.0463 15.9544 19.0157C16.281 19.3461 16.349 19.7557 16.1692 20.1394C15.9731 20.5593 15.5328 20.8352 15.101 20.8055C14.8275 20.7866 14.6141 20.6509 14.4248 20.4601C13.699 19.7299 12.9595 19.0127 12.249 18.2688C12.0415 18.0522 11.9423 18.0935 11.7594 18.2816C11.0294 19.0333 10.2875 19.7731 9.54132 20.5089C9.20618 20.8394 8.80745 20.8993 8.41854 20.7103C8.00532 20.5104 7.74261 20.0884 7.76274 19.6639C7.77698 19.3776 7.91791 19.1581 8.11482 18.9621C9.06672 18.0122 10.0157 17.0593 10.9649 16.1072C11.028 16.0441 11.0864 15.9771 11.178 15.8789C9.88334 15.7436 8.71587 15.4249 7.71634 14.6434C7.5921 14.5461 7.46418 14.4524 7.35124 14.3433C6.91347 13.9233 6.86952 13.4418 7.21547 12.9463C7.51182 12.522 8.00876 12.4086 8.52559 12.6524C8.62576 12.6993 8.72102 12.7587 8.81236 12.8216C10.6749 14.1015 13.2338 14.1366 15.1037 12.8788C15.2888 12.7374 15.4869 12.621 15.7165 12.5623C16.1624 12.4474 16.5788 12.6117 16.8179 13.002C17.0917 13.4482 17.0885 13.8832 16.7514 14.2297Z" fill="white"/>
</svg>
