<svg width="24" height="25" viewBox="0 0 24 25" fill="none" xmlns="http://www.w3.org/2000/svg">
<path d="M12 0.466309C5.37281 0.466309 0 5.83887 0 12.4663C0 19.0937 5.37281 24.4663 12 24.4663C18.6272 24.4663 24 19.0937 24 12.4663C24 5.83887 18.6272 0.466309 12 0.466309ZM18.087 13.7642C18.6463 14.3104 19.2381 14.8246 19.7402 15.4273C19.9626 15.694 20.1723 15.9697 20.3319 16.2798C20.5597 16.722 20.354 17.2069 19.9582 17.2332L17.4997 17.2327C16.8648 17.2852 16.3595 17.0291 15.9335 16.595C15.5935 16.2491 15.278 15.8796 14.9505 15.5219C14.8167 15.375 14.6757 15.2368 14.5078 15.128C14.1726 14.91 13.8815 14.9768 13.6895 15.3269C13.4938 15.6832 13.4491 16.078 13.4304 16.4745C13.4037 17.0542 13.2288 17.2057 12.6472 17.2329C11.4044 17.2911 10.2251 17.1025 9.12908 16.476C8.16221 15.9233 7.41385 15.1433 6.76174 14.2601C5.49189 12.5385 4.51937 10.6489 3.64554 8.70512C3.44888 8.26735 3.59276 8.03312 4.0757 8.02404C4.87808 8.00857 5.68045 8.01053 6.48282 8.0233C6.80937 8.02846 7.02543 8.2153 7.1509 8.52343C7.58449 9.59024 8.11605 10.6052 8.78216 11.5466C8.95967 11.7973 9.14087 12.0472 9.39892 12.2242C9.68372 12.4197 9.90077 12.3551 10.0351 12.0371C10.121 11.8351 10.1581 11.619 10.1767 11.4025C10.2406 10.6607 10.2482 9.91924 10.1377 9.18046C10.069 8.71814 9.80894 8.41958 9.34809 8.33217C9.11337 8.28773 9.14774 8.20082 9.26191 8.06676C9.46005 7.83498 9.64567 7.6916 10.0167 7.6916L12.7943 7.69111C13.232 7.77704 13.3303 7.97346 13.3897 8.41442L13.3921 11.5012C13.387 11.6718 13.4778 12.1776 13.7842 12.2893C14.0297 12.3703 14.1918 12.1734 14.3386 12.018C15.0047 11.3111 15.4793 10.4768 15.9043 9.61332C16.0919 9.23251 16.2537 8.83844 16.4108 8.44364C16.5277 8.15171 16.7094 8.00808 17.0389 8.01299L19.7136 8.01618C19.7925 8.01618 19.8725 8.01692 19.9506 8.03042C20.4014 8.10752 20.5248 8.30148 20.3854 8.74121C20.1659 9.43212 19.7394 10.0076 19.3225 10.5846C18.8757 11.2023 18.3991 11.7985 17.9567 12.4189C17.5501 12.9861 17.5822 13.2716 18.087 13.7642Z" fill="white"/>
</svg>
