<svg width="512" height="512" viewBox="0 0 512 512" fill="none" xmlns="http://www.w3.org/2000/svg">
<path fill-rule="evenodd" clip-rule="evenodd" d="M256 -0.000488281C397.385 -0.000488281 512 114.614 512 255.999C512 397.383 397.385 511.997 256 511.997C114.615 511.997 0 397.383 0 255.999C0 114.614 114.615 -0.000488281 256 -0.000488281V-0.000488281ZM256 34.5119C378.325 34.5119 477.489 133.675 477.489 256C477.489 378.324 378.325 477.487 256 477.487C133.675 477.487 34.5114 378.324 34.5114 256C34.5114 133.675 133.675 34.5119 256 34.5119V34.5119Z" fill="#97C11F"/>
<path fill-rule="evenodd" clip-rule="evenodd" d="M122.5 122.499C159.365 85.6342 207.682 67.2026 255.999 67.2026V255.998L122.5 122.499V122.499Z" fill="#5C7812"/>
<path fill-rule="evenodd" clip-rule="evenodd" d="M67.2031 256.003C67.2031 203.869 88.3352 156.669 122.5 122.505L255.999 256.003H67.2031Z" fill="#638014"/>
<path fill-rule="evenodd" clip-rule="evenodd" d="M122.5 389.497C85.6356 352.633 67.2031 304.316 67.2031 256H255.999L122.5 389.497Z" fill="#678815"/>
<path fill-rule="evenodd" clip-rule="evenodd" d="M255.999 444.794C203.865 444.794 156.665 423.662 122.5 389.497L255.999 256V444.794Z" fill="#749717"/>
<path fill-rule="evenodd" clip-rule="evenodd" d="M444.796 256.003C444.796 203.869 423.665 156.669 389.499 122.505L256 256.003H444.796Z" fill="#97C11F"/>
<path fill-rule="evenodd" clip-rule="evenodd" d="M389.499 389.497C426.364 352.633 444.796 304.316 444.796 256H256L389.499 389.497Z" fill="#8BB31E"/>
<path fill-rule="evenodd" clip-rule="evenodd" d="M256 444.794C308.134 444.794 355.334 423.662 389.499 389.497L256 256V444.794Z" fill="#80A51A"/>
</svg>
